<svg width="62" height="62" viewBox="0 0 62 62" fill="none" xmlns="http://www.w3.org/2000/svg">
<path d="M55.6889 41.2272C58.9013 38.965 61 35.2276 61 31C61 26.7731 58.902 23.0362 55.6905 20.7739C56.3625 16.9027 55.2038 12.7758 52.2143 9.78634C49.2248 6.79685 45.0979 5.63815 41.2266 6.31022C38.9643 3.09833 35.2272 1 31 1C26.7726 1 23.0354 3.0985 20.7731 6.31062C16.9021 5.63887 12.7755 6.79763 9.78623 9.7869C6.79701 12.7761 5.63824 16.9026 6.30992 20.7736C3.0982 23.0359 1 26.7729 1 31C1 35.2269 3.09802 38.9638 6.30953 41.2261C5.63749 45.0973 6.79621 49.2243 9.78568 52.2138C12.7752 55.2033 16.9022 56.362 20.7735 55.6899C23.0357 58.9017 26.7728 61 31 61C35.2273 61 38.9645 58.9016 41.2267 55.6896C45.0974 56.3609 49.2235 55.2021 52.2124 52.2131C55.2015 49.2241 56.3603 45.098 55.6889 41.2272Z" fill="#14AE5C"/>
<path d="M21 33.5L28.5 41L41 23.5M61 31C61 35.2276 58.9013 38.965 55.6889 41.2272C56.3603 45.098 55.2015 49.2241 52.2124 52.2131C49.2235 55.2021 45.0974 56.3609 41.2267 55.6896C38.9645 58.9016 35.2273 61 31 61C26.7728 61 23.0357 58.9017 20.7735 55.6899C16.9022 56.362 12.7752 55.2033 9.78568 52.2138C6.79621 49.2243 5.63749 45.0973 6.30953 41.2261C3.09802 38.9638 1 35.2269 1 31C1 26.7729 3.0982 23.0359 6.30992 20.7736C5.63824 16.9026 6.79701 12.7761 9.78623 9.7869C12.7755 6.79763 16.9021 5.63887 20.7731 6.31062C23.0354 3.0985 26.7726 1 31 1C35.2272 1 38.9643 3.09833 41.2266 6.31022C45.0979 5.63815 49.2248 6.79685 52.2143 9.78634C55.2038 12.7758 56.3625 16.9027 55.6905 20.7739C58.902 23.0362 61 26.7731 61 31Z" stroke="black" stroke-opacity="0.65" stroke-width="1.5" stroke-linecap="round" stroke-linejoin="round"/>
</svg>
