<svg xmlns="http://www.w3.org/2000/svg" xmlns:xlink="http://www.w3.org/1999/xlink" width="500" zoomAndPan="magnify" viewBox="0 0 375 374.999991" height="500" preserveAspectRatio="xMidYMid meet" version="1.0"><defs><clipPath id="5cc352faaf"><path d="M 80.628906 26.710938 L 250.128906 26.710938 L 250.128906 196.210938 L 80.628906 196.210938 Z M 80.628906 26.710938 " clip-rule="nonzero"/></clipPath><clipPath id="30ea5f7161"><path d="M 104 130 L 227 130 L 227 196.210938 L 104 196.210938 Z M 104 130 " clip-rule="nonzero"/></clipPath></defs><g clip-path="url(#5cc352faaf)"><path fill="#ff9561" d="M 250.140625 111.46875 C 250.140625 112.855469 250.105469 114.242188 250.039062 115.625 C 249.96875 117.011719 249.867188 118.394531 249.734375 119.773438 C 249.597656 121.15625 249.425781 122.53125 249.222656 123.902344 C 249.019531 125.277344 248.78125 126.640625 248.511719 128.003906 C 248.242188 129.363281 247.9375 130.714844 247.601562 132.0625 C 247.261719 133.40625 246.894531 134.742188 246.492188 136.070312 C 246.089844 137.398438 245.652344 138.714844 245.1875 140.019531 C 244.71875 141.328125 244.21875 142.621094 243.6875 143.902344 C 243.15625 145.183594 242.597656 146.453125 242.003906 147.707031 C 241.410156 148.960938 240.785156 150.199219 240.132812 151.421875 C 239.480469 152.644531 238.796875 153.851562 238.082031 155.039062 C 237.371094 156.230469 236.628906 157.402344 235.855469 158.554688 C 235.085938 159.707031 234.289062 160.84375 233.460938 161.957031 C 232.636719 163.070312 231.78125 164.164062 230.902344 165.234375 C 230.023438 166.308594 229.117188 167.359375 228.183594 168.386719 C 227.253906 169.414062 226.296875 170.417969 225.316406 171.398438 C 224.335938 172.378906 223.332031 173.335938 222.304688 174.265625 C 221.277344 175.199219 220.226562 176.105469 219.152344 176.984375 C 218.082031 177.863281 216.988281 178.71875 215.875 179.542969 C 214.757812 180.371094 213.625 181.167969 212.472656 181.941406 C 211.320312 182.710938 210.148438 183.453125 208.957031 184.164062 C 207.769531 184.878906 206.5625 185.5625 205.339844 186.214844 C 204.113281 186.871094 202.875 187.492188 201.621094 188.085938 C 200.367188 188.679688 199.101562 189.242188 197.820312 189.773438 C 196.539062 190.300781 195.242188 190.800781 193.9375 191.269531 C 192.632812 191.734375 191.316406 192.171875 189.988281 192.574219 C 188.660156 192.976562 187.324219 193.347656 185.976562 193.683594 C 184.632812 194.019531 183.28125 194.324219 181.917969 194.59375 C 180.558594 194.867188 179.191406 195.101562 177.820312 195.304688 C 176.449219 195.507812 175.070312 195.679688 173.691406 195.816406 C 172.3125 195.953125 170.929688 196.054688 169.542969 196.121094 C 168.15625 196.191406 166.769531 196.222656 165.382812 196.222656 C 163.996094 196.222656 162.609375 196.191406 161.226562 196.121094 C 159.839844 196.054688 158.457031 195.953125 157.078125 195.816406 C 155.695312 195.679688 154.320312 195.507812 152.949219 195.304688 C 151.574219 195.101562 150.210938 194.867188 148.847656 194.59375 C 147.488281 194.324219 146.136719 194.019531 144.789062 193.683594 C 143.445312 193.347656 142.109375 192.976562 140.78125 192.574219 C 139.453125 192.171875 138.136719 191.734375 136.832031 191.269531 C 135.523438 190.800781 134.230469 190.300781 132.949219 189.773438 C 131.667969 189.242188 130.398438 188.679688 129.144531 188.085938 C 127.890625 187.492188 126.652344 186.871094 125.429688 186.214844 C 124.207031 185.5625 123 184.878906 121.8125 184.164062 C 120.621094 183.453125 119.449219 182.710938 118.296875 181.941406 C 117.144531 181.167969 116.007812 180.371094 114.894531 179.542969 C 113.78125 178.71875 112.6875 177.863281 111.617188 176.984375 C 110.542969 176.105469 109.492188 175.199219 108.464844 174.265625 C 107.4375 173.335938 106.433594 172.378906 105.453125 171.398438 C 104.472656 170.417969 103.515625 169.414062 102.582031 168.386719 C 101.652344 167.359375 100.746094 166.308594 99.867188 165.234375 C 98.988281 164.164062 98.132812 163.070312 97.308594 161.957031 C 96.480469 160.84375 95.683594 159.707031 94.910156 158.554688 C 94.140625 157.402344 93.398438 156.230469 92.6875 155.039062 C 91.972656 153.851562 91.289062 152.644531 90.636719 151.421875 C 89.980469 150.199219 89.359375 148.960938 88.765625 147.707031 C 88.171875 146.453125 87.609375 145.183594 87.078125 143.902344 C 86.546875 142.621094 86.050781 141.328125 85.582031 140.019531 C 85.113281 138.714844 84.679688 137.398438 84.277344 136.070312 C 83.875 134.742188 83.503906 133.40625 83.167969 132.0625 C 82.832031 130.714844 82.527344 129.363281 82.257812 128.003906 C 81.984375 126.640625 81.75 125.277344 81.546875 123.902344 C 81.339844 122.53125 81.171875 121.15625 81.035156 119.773438 C 80.898438 118.394531 80.796875 117.011719 80.730469 115.625 C 80.660156 114.242188 80.628906 112.855469 80.628906 111.46875 C 80.628906 110.078125 80.660156 108.695312 80.730469 107.308594 C 80.796875 105.921875 80.898438 104.539062 81.035156 103.160156 C 81.171875 101.777344 81.339844 100.402344 81.546875 99.03125 C 81.75 97.660156 81.984375 96.292969 82.257812 94.933594 C 82.527344 93.570312 82.832031 92.21875 83.167969 90.871094 C 83.503906 89.527344 83.875 88.191406 84.277344 86.863281 C 84.679688 85.535156 85.113281 84.21875 85.582031 82.914062 C 86.050781 81.609375 86.546875 80.3125 87.078125 79.03125 C 87.609375 77.75 88.171875 76.484375 88.765625 75.230469 C 89.359375 73.976562 89.980469 72.738281 90.636719 71.511719 C 91.289062 70.289062 91.972656 69.082031 92.6875 67.894531 C 93.398438 66.703125 94.140625 65.53125 94.910156 64.378906 C 95.683594 63.226562 96.480469 62.09375 97.308594 60.976562 C 98.132812 59.863281 98.988281 58.769531 99.867188 57.699219 C 100.746094 56.625 101.652344 55.574219 102.582031 54.546875 C 103.515625 53.519531 104.472656 52.515625 105.453125 51.535156 C 106.433594 50.554688 107.4375 49.597656 108.464844 48.667969 C 109.492188 47.734375 110.542969 46.828125 111.617188 45.949219 C 112.6875 45.070312 113.78125 44.214844 114.894531 43.390625 C 116.007812 42.5625 117.144531 41.765625 118.296875 40.996094 C 119.449219 40.222656 120.621094 39.480469 121.8125 38.769531 C 123 38.054688 124.207031 37.371094 125.429688 36.71875 C 126.652344 36.066406 127.890625 35.441406 129.144531 34.847656 C 130.398438 34.253906 131.667969 33.691406 132.949219 33.164062 C 134.230469 32.632812 135.523438 32.132812 136.832031 31.664062 C 138.136719 31.199219 139.453125 30.761719 140.78125 30.359375 C 142.109375 29.957031 143.445312 29.585938 144.789062 29.25 C 146.136719 28.914062 147.488281 28.609375 148.847656 28.339844 C 150.210938 28.070312 151.574219 27.832031 152.949219 27.628906 C 154.320312 27.425781 155.695312 27.253906 157.078125 27.117188 C 158.457031 26.984375 159.839844 26.878906 161.226562 26.8125 C 162.609375 26.746094 163.996094 26.710938 165.382812 26.710938 C 166.769531 26.710938 168.15625 26.746094 169.542969 26.8125 C 170.929688 26.878906 172.3125 26.984375 173.691406 27.117188 C 175.070312 27.253906 176.449219 27.425781 177.820312 27.628906 C 179.191406 27.832031 180.558594 28.070312 181.917969 28.339844 C 183.28125 28.609375 184.632812 28.914062 185.976562 29.25 C 187.324219 29.585938 188.660156 29.957031 189.988281 30.359375 C 191.316406 30.761719 192.632812 31.199219 193.9375 31.664062 C 195.242188 32.132812 196.539062 32.632812 197.820312 33.164062 C 199.101562 33.691406 200.367188 34.253906 201.621094 34.847656 C 202.875 35.441406 204.113281 36.066406 205.339844 36.71875 C 206.5625 37.371094 207.769531 38.054688 208.957031 38.769531 C 210.148438 39.480469 211.320312 40.222656 212.472656 40.996094 C 213.625 41.765625 214.757812 42.5625 215.875 43.390625 C 216.988281 44.214844 218.082031 45.070312 219.152344 45.949219 C 220.226562 46.828125 221.277344 47.734375 222.304688 48.667969 C 223.332031 49.597656 224.335938 50.554688 225.316406 51.535156 C 226.296875 52.515625 227.253906 53.519531 228.183594 54.546875 C 229.117188 55.574219 230.023438 56.625 230.902344 57.699219 C 231.78125 58.769531 232.636719 59.863281 233.460938 60.976562 C 234.289062 62.09375 235.085938 63.226562 235.855469 64.378906 C 236.628906 65.53125 237.371094 66.703125 238.082031 67.894531 C 238.796875 69.082031 239.480469 70.289062 240.132812 71.511719 C 240.785156 72.738281 241.410156 73.976562 242.003906 75.230469 C 242.597656 76.484375 243.15625 77.75 243.6875 79.03125 C 244.21875 80.3125 244.71875 81.609375 245.1875 82.914062 C 245.652344 84.21875 246.089844 85.535156 246.492188 86.863281 C 246.894531 88.191406 247.261719 89.527344 247.601562 90.871094 C 247.9375 92.21875 248.242188 93.570312 248.511719 94.933594 C 248.78125 96.292969 249.019531 97.660156 249.222656 99.03125 C 249.425781 100.402344 249.597656 101.777344 249.734375 103.160156 C 249.867188 104.539062 249.96875 105.921875 250.039062 107.308594 C 250.105469 108.695312 250.140625 110.078125 250.140625 111.46875 Z M 250.140625 111.46875 " fill-opacity="1" fill-rule="nonzero"/></g><path fill="#002c5c" d="M 187.066406 63.972656 C 182.765625 47.464844 133.722656 40.929688 127.195312 80.261719 C 120.667969 119.597656 97.574219 152.402344 149.644531 160.363281 C 201.71875 168.324219 212.863281 149.058594 209.679688 123.738281 C 206.492188 98.421875 200.601562 62.484375 187.066406 63.972656 Z M 187.066406 63.972656 " fill-opacity="1" fill-rule="nonzero"/><g clip-path="url(#30ea5f7161)"><path fill="#00669b" d="M 226.234375 170.519531 C 225.25 171.535156 224.238281 172.523438 223.203125 173.488281 C 222.167969 174.449219 221.113281 175.390625 220.03125 176.300781 C 218.949219 177.210938 217.84375 178.09375 216.71875 178.949219 C 215.59375 179.808594 214.449219 180.632812 213.28125 181.433594 C 212.113281 182.230469 210.925781 183 209.722656 183.738281 C 208.515625 184.480469 207.292969 185.1875 206.050781 185.867188 C 204.8125 186.542969 203.554688 187.191406 202.28125 187.804688 C 201.007812 188.421875 199.71875 189.003906 198.417969 189.554688 C 197.117188 190.105469 195.800781 190.625 194.472656 191.109375 C 193.144531 191.59375 191.804688 192.046875 190.453125 192.464844 C 189.101562 192.882812 187.742188 193.265625 186.371094 193.617188 C 185 193.964844 183.625 194.28125 182.238281 194.5625 C 180.851562 194.84375 179.460938 195.089844 178.0625 195.300781 C 176.664062 195.511719 175.261719 195.6875 173.851562 195.828125 C 172.445312 195.96875 171.035156 196.078125 169.625 196.148438 C 168.210938 196.21875 166.796875 196.253906 165.382812 196.253906 C 163.96875 196.253906 162.558594 196.21875 161.144531 196.148438 C 159.730469 196.078125 158.324219 195.96875 156.914062 195.828125 C 155.507812 195.6875 154.105469 195.511719 152.707031 195.300781 C 151.308594 195.089844 149.917969 194.84375 148.53125 194.5625 C 147.144531 194.28125 145.765625 193.964844 144.398438 193.617188 C 143.027344 193.265625 141.667969 192.882812 140.316406 192.464844 C 138.964844 192.046875 137.625 191.59375 136.296875 191.109375 C 134.96875 190.625 133.652344 190.105469 132.351562 189.554688 C 131.046875 189.003906 129.761719 188.421875 128.488281 187.804688 C 127.214844 187.191406 125.957031 186.542969 124.714844 185.867188 C 123.476562 185.1875 122.25 184.480469 121.046875 183.738281 C 119.839844 183 118.65625 182.230469 117.488281 181.433594 C 116.320312 180.632812 115.175781 179.808594 114.046875 178.949219 C 112.921875 178.09375 111.820312 177.210938 110.738281 176.300781 C 109.65625 175.390625 108.597656 174.449219 107.5625 173.488281 C 106.53125 172.523438 105.519531 171.535156 104.535156 170.519531 C 105.164062 169.035156 105.84375 167.574219 106.578125 166.136719 C 107.3125 164.703125 108.097656 163.296875 108.9375 161.917969 C 109.773438 160.542969 110.660156 159.195312 111.597656 157.882812 C 112.53125 156.570312 113.515625 155.292969 114.542969 154.050781 C 115.574219 152.8125 116.648438 151.609375 117.765625 150.449219 C 118.882812 149.285156 120.039062 148.167969 121.238281 147.089844 C 122.4375 146.011719 123.675781 144.980469 124.953125 143.992188 C 126.226562 143.003906 127.535156 142.066406 128.878906 141.175781 C 130.222656 140.285156 131.597656 139.445312 133.003906 138.652344 C 134.40625 137.863281 135.839844 137.125 137.300781 136.441406 C 138.757812 135.753906 140.242188 135.125 141.746094 134.546875 C 143.253906 133.96875 144.777344 133.449219 146.320312 132.984375 C 147.863281 132.519531 149.421875 132.109375 150.996094 131.757812 C 152.570312 131.40625 154.15625 131.113281 155.75 130.878906 C 157.34375 130.644531 158.945312 130.46875 160.554688 130.347656 C 162.160156 130.230469 163.773438 130.171875 165.382812 130.171875 C 166.996094 130.171875 168.605469 130.230469 170.214844 130.347656 C 171.824219 130.46875 173.425781 130.644531 175.019531 130.878906 C 176.613281 131.113281 178.199219 131.40625 179.773438 131.757812 C 181.34375 132.109375 182.902344 132.519531 184.449219 132.984375 C 185.992188 133.449219 187.515625 133.96875 189.023438 134.546875 C 190.527344 135.125 192.007812 135.753906 193.46875 136.441406 C 194.929688 137.125 196.359375 137.863281 197.765625 138.652344 C 199.171875 139.445312 200.546875 140.285156 201.890625 141.175781 C 203.234375 142.066406 204.542969 143.003906 205.816406 143.992188 C 207.09375 144.980469 208.328125 146.011719 209.527344 147.089844 C 210.726562 148.167969 211.886719 149.285156 213.003906 150.449219 C 214.121094 151.609375 215.195312 152.8125 216.222656 154.050781 C 217.253906 155.292969 218.238281 156.570312 219.171875 157.882812 C 220.109375 159.195312 220.996094 160.542969 221.832031 161.917969 C 222.671875 163.296875 223.457031 164.703125 224.191406 166.136719 C 224.925781 167.574219 225.605469 169.035156 226.234375 170.519531 Z M 226.234375 170.519531 " fill-opacity="1" fill-rule="nonzero"/></g><path fill="#ff9561" d="M 165.351562 111.46875 C 166.132812 111.46875 166.910156 111.542969 167.679688 111.695312 C 168.449219 111.847656 169.195312 112.074219 169.917969 112.375 C 170.640625 112.675781 171.328125 113.042969 171.980469 113.476562 C 172.632812 113.914062 173.234375 114.410156 173.789062 114.960938 C 174.34375 115.515625 174.839844 116.121094 175.273438 116.769531 C 175.710938 117.421875 176.078125 118.109375 176.375 118.835938 C 176.675781 119.558594 176.902344 120.304688 177.054688 121.074219 C 177.207031 121.839844 177.285156 122.617188 177.285156 123.402344 L 177.285156 133.925781 C 177.285156 134.710938 177.207031 135.488281 177.054688 136.257812 C 176.902344 137.023438 176.675781 137.769531 176.375 138.496094 C 176.078125 139.21875 175.710938 139.90625 175.273438 140.558594 C 174.839844 141.210938 174.34375 141.8125 173.789062 142.367188 C 173.234375 142.921875 172.632812 143.414062 171.980469 143.851562 C 171.328125 144.285156 170.640625 144.652344 169.917969 144.953125 C 169.195312 145.253906 168.449219 145.480469 167.679688 145.632812 C 166.910156 145.785156 166.132812 145.863281 165.351562 145.863281 C 164.566406 145.863281 163.792969 145.785156 163.023438 145.632812 C 162.253906 145.480469 161.507812 145.253906 160.785156 144.953125 C 160.058594 144.652344 159.371094 144.285156 158.722656 143.851562 C 158.070312 143.414062 157.464844 142.921875 156.914062 142.367188 C 156.359375 141.8125 155.863281 141.210938 155.429688 140.558594 C 154.992188 139.90625 154.625 139.21875 154.324219 138.496094 C 154.023438 137.769531 153.800781 137.023438 153.644531 136.257812 C 153.492188 135.488281 153.417969 134.710938 153.417969 133.925781 L 153.417969 123.402344 C 153.417969 122.617188 153.492188 121.839844 153.644531 121.074219 C 153.800781 120.304688 154.023438 119.558594 154.324219 118.835938 C 154.625 118.109375 154.992188 117.421875 155.429688 116.769531 C 155.863281 116.121094 156.359375 115.515625 156.914062 114.960938 C 157.464844 114.410156 158.070312 113.914062 158.722656 113.476562 C 159.371094 113.042969 160.058594 112.675781 160.785156 112.375 C 161.507812 112.074219 162.253906 111.847656 163.023438 111.695312 C 163.792969 111.542969 164.566406 111.46875 165.351562 111.46875 Z M 165.351562 111.46875 " fill-opacity="1" fill-rule="nonzero"/><path fill="#ff9561" d="M 143.597656 103.953125 C 143.597656 104.449219 143.550781 104.9375 143.453125 105.421875 C 143.359375 105.90625 143.214844 106.375 143.027344 106.832031 C 142.835938 107.289062 142.605469 107.722656 142.332031 108.132812 C 142.054688 108.546875 141.742188 108.925781 141.394531 109.273438 C 141.042969 109.625 140.664062 109.9375 140.253906 110.210938 C 139.84375 110.484375 139.410156 110.71875 138.953125 110.90625 C 138.496094 111.09375 138.027344 111.238281 137.539062 111.335938 C 137.054688 111.429688 136.566406 111.480469 136.074219 111.480469 C 135.578125 111.480469 135.089844 111.429688 134.605469 111.335938 C 134.121094 111.238281 133.648438 111.09375 133.191406 110.90625 C 132.734375 110.71875 132.300781 110.484375 131.890625 110.210938 C 131.480469 109.9375 131.101562 109.625 130.75 109.273438 C 130.402344 108.925781 130.089844 108.546875 129.816406 108.132812 C 129.539062 107.722656 129.308594 107.289062 129.121094 106.832031 C 128.929688 106.375 128.789062 105.90625 128.691406 105.421875 C 128.59375 104.9375 128.546875 104.449219 128.546875 103.953125 C 128.546875 103.457031 128.59375 102.96875 128.691406 102.484375 C 128.789062 102 128.929688 101.53125 129.121094 101.074219 C 129.308594 100.617188 129.539062 100.183594 129.816406 99.773438 C 130.089844 99.359375 130.402344 98.980469 130.75 98.632812 C 131.101562 98.28125 131.480469 97.96875 131.890625 97.695312 C 132.300781 97.421875 132.734375 97.1875 133.191406 97 C 133.648438 96.8125 134.121094 96.667969 134.605469 96.570312 C 135.089844 96.476562 135.578125 96.425781 136.074219 96.425781 C 136.566406 96.425781 137.054688 96.476562 137.539062 96.570312 C 138.027344 96.667969 138.496094 96.8125 138.953125 97 C 139.410156 97.1875 139.84375 97.421875 140.253906 97.695312 C 140.664062 97.96875 141.042969 98.28125 141.394531 98.632812 C 141.742188 98.980469 142.054688 99.359375 142.332031 99.773438 C 142.605469 100.183594 142.835938 100.617188 143.027344 101.074219 C 143.214844 101.53125 143.359375 102 143.453125 102.484375 C 143.550781 102.96875 143.597656 103.457031 143.597656 103.953125 Z M 143.597656 103.953125 " fill-opacity="1" fill-rule="nonzero"/><path fill="#ff9561" d="M 201.453125 103.953125 C 201.453125 104.449219 201.40625 104.9375 201.308594 105.421875 C 201.214844 105.90625 201.070312 106.375 200.882812 106.832031 C 200.691406 107.289062 200.460938 107.722656 200.1875 108.132812 C 199.910156 108.546875 199.601562 108.925781 199.25 109.273438 C 198.902344 109.625 198.519531 109.9375 198.109375 110.210938 C 197.699219 110.484375 197.265625 110.71875 196.808594 110.90625 C 196.351562 111.09375 195.882812 111.238281 195.398438 111.335938 C 194.914062 111.429688 194.421875 111.480469 193.929688 111.480469 C 193.433594 111.480469 192.945312 111.429688 192.460938 111.335938 C 191.976562 111.238281 191.503906 111.09375 191.046875 110.90625 C 190.59375 110.71875 190.160156 110.484375 189.746094 110.210938 C 189.335938 109.9375 188.957031 109.625 188.605469 109.273438 C 188.257812 108.925781 187.945312 108.546875 187.671875 108.132812 C 187.398438 107.722656 187.164062 107.289062 186.976562 106.832031 C 186.785156 106.375 186.644531 105.90625 186.546875 105.421875 C 186.449219 104.9375 186.402344 104.449219 186.402344 103.953125 C 186.402344 103.457031 186.449219 102.96875 186.546875 102.484375 C 186.644531 102 186.785156 101.53125 186.976562 101.074219 C 187.164062 100.617188 187.398438 100.183594 187.671875 99.773438 C 187.945312 99.359375 188.257812 98.980469 188.605469 98.632812 C 188.957031 98.28125 189.335938 97.96875 189.746094 97.695312 C 190.160156 97.421875 190.59375 97.1875 191.046875 97 C 191.503906 96.8125 191.976562 96.667969 192.460938 96.570312 C 192.945312 96.476562 193.433594 96.425781 193.929688 96.425781 C 194.421875 96.425781 194.914062 96.476562 195.398438 96.570312 C 195.882812 96.667969 196.351562 96.8125 196.808594 97 C 197.265625 97.1875 197.699219 97.421875 198.109375 97.695312 C 198.519531 97.96875 198.902344 98.28125 199.25 98.632812 C 199.601562 98.980469 199.910156 99.359375 200.1875 99.773438 C 200.460938 100.183594 200.691406 100.617188 200.882812 101.074219 C 201.070312 101.53125 201.214844 102 201.308594 102.484375 C 201.40625 102.96875 201.453125 103.457031 201.453125 103.953125 Z M 201.453125 103.953125 " fill-opacity="1" fill-rule="nonzero"/><path fill="#ffc9ac" d="M 165.382812 63.972656 C 166.34375 63.972656 167.300781 64.019531 168.257812 64.113281 C 169.210938 64.207031 170.160156 64.347656 171.101562 64.535156 C 172.042969 64.722656 172.972656 64.957031 173.890625 65.234375 C 174.8125 65.511719 175.714844 65.835938 176.601562 66.203125 C 177.488281 66.570312 178.355469 66.980469 179.199219 67.433594 C 180.046875 67.886719 180.871094 68.378906 181.667969 68.910156 C 182.464844 69.445312 183.238281 70.015625 183.980469 70.625 C 184.722656 71.234375 185.429688 71.878906 186.109375 72.558594 C 186.789062 73.234375 187.433594 73.945312 188.042969 74.6875 C 188.652344 75.429688 189.222656 76.199219 189.753906 77 C 190.289062 77.796875 190.78125 78.621094 191.234375 79.464844 C 191.6875 80.3125 192.097656 81.179688 192.464844 82.066406 C 192.832031 82.953125 193.152344 83.855469 193.433594 84.773438 C 193.710938 85.695312 193.945312 86.625 194.132812 87.566406 C 194.320312 88.507812 194.460938 89.457031 194.554688 90.410156 C 194.648438 91.367188 194.695312 92.324219 194.695312 93.285156 L 194.695312 100.859375 C 194.695312 101.820312 194.648438 102.777344 194.554688 103.734375 C 194.460938 104.6875 194.320312 105.636719 194.132812 106.578125 C 193.945312 107.519531 193.710938 108.449219 193.433594 109.371094 C 193.152344 110.289062 192.832031 111.191406 192.464844 112.078125 C 192.097656 112.964844 191.6875 113.832031 191.234375 114.679688 C 190.78125 115.523438 190.289062 116.347656 189.753906 117.144531 C 189.222656 117.941406 188.652344 118.714844 188.042969 119.457031 C 187.433594 120.199219 186.789062 120.90625 186.109375 121.585938 C 185.429688 122.265625 184.722656 122.910156 183.980469 123.519531 C 183.238281 124.128906 182.464844 124.699219 181.667969 125.230469 C 180.871094 125.765625 180.046875 126.257812 179.199219 126.710938 C 178.355469 127.164062 177.488281 127.574219 176.601562 127.941406 C 175.714844 128.308594 174.8125 128.632812 173.890625 128.910156 C 172.972656 129.1875 172.042969 129.421875 171.101562 129.609375 C 170.160156 129.796875 169.210938 129.9375 168.257812 130.03125 C 167.300781 130.125 166.34375 130.171875 165.382812 130.171875 C 164.421875 130.171875 163.464844 130.125 162.511719 130.03125 C 161.554688 129.9375 160.605469 129.796875 159.664062 129.609375 C 158.722656 129.421875 157.792969 129.1875 156.875 128.910156 C 155.957031 128.632812 155.054688 128.308594 154.167969 127.941406 C 153.28125 127.574219 152.414062 127.164062 151.566406 126.710938 C 150.71875 126.257812 149.898438 125.765625 149.097656 125.230469 C 148.300781 124.699219 147.53125 124.128906 146.789062 123.519531 C 146.046875 122.910156 145.335938 122.265625 144.65625 121.585938 C 143.980469 120.90625 143.335938 120.199219 142.726562 119.457031 C 142.117188 118.714844 141.546875 117.941406 141.011719 117.144531 C 140.480469 116.347656 139.984375 115.523438 139.535156 114.679688 C 139.082031 113.832031 138.671875 112.964844 138.304688 112.078125 C 137.9375 111.191406 137.613281 110.289062 137.335938 109.367188 C 137.054688 108.449219 136.824219 107.519531 136.636719 106.578125 C 136.449219 105.636719 136.308594 104.6875 136.214844 103.734375 C 136.121094 102.777344 136.074219 101.820312 136.074219 100.859375 L 136.074219 93.285156 C 136.074219 92.324219 136.121094 91.367188 136.214844 90.410156 C 136.308594 89.457031 136.449219 88.507812 136.636719 87.566406 C 136.824219 86.625 137.054688 85.695312 137.335938 84.773438 C 137.613281 83.855469 137.9375 82.953125 138.304688 82.066406 C 138.671875 81.179688 139.082031 80.3125 139.535156 79.464844 C 139.984375 78.621094 140.480469 77.796875 141.011719 77 C 141.546875 76.199219 142.117188 75.429688 142.726562 74.6875 C 143.335938 73.945312 143.980469 73.234375 144.65625 72.558594 C 145.335938 71.878906 146.046875 71.234375 146.789062 70.625 C 147.53125 70.015625 148.300781 69.445312 149.097656 68.910156 C 149.898438 68.378906 150.71875 67.886719 151.566406 67.433594 C 152.414062 66.980469 153.28125 66.570312 154.167969 66.203125 C 155.054688 65.835938 155.957031 65.511719 156.875 65.234375 C 157.792969 64.957031 158.722656 64.722656 159.664062 64.535156 C 160.605469 64.347656 161.554688 64.207031 162.511719 64.113281 C 163.464844 64.019531 164.421875 63.972656 165.382812 63.972656 Z M 165.382812 63.972656 " fill-opacity="1" fill-rule="nonzero"/><path fill="#002c5c" d="M 136.074219 96.425781 C 175.441406 96.828125 186.402344 74.53125 186.402344 74.53125 C 186.402344 74.53125 188.261719 92.371094 194.695312 97.070312 C 198.058594 78.355469 188.179688 61.316406 162.542969 60.042969 C 136.90625 58.769531 129.984375 88.066406 136.074219 96.425781 Z M 136.074219 96.425781 " fill-opacity="1" fill-rule="nonzero"/></svg>