<svg xmlns="http://www.w3.org/2000/svg" xmlns:xlink="http://www.w3.org/1999/xlink" width="500" zoomAndPan="magnify" viewBox="0 0 375 374.999991" height="500" preserveAspectRatio="xMidYMid meet" version="1.0"><defs><clipPath id="53273cca9e"><path d="M 102 26.625 L 265.804688 26.625 L 265.804688 190 L 102 190 Z M 102 26.625 " clip-rule="nonzero"/></clipPath></defs><g clip-path="url(#53273cca9e)"><path fill="#3998ff" d="M 265.691406 108.164062 C 265.691406 109.496094 265.660156 110.832031 265.59375 112.164062 C 265.527344 113.496094 265.429688 114.824219 265.300781 116.152344 C 265.167969 117.480469 265.007812 118.804688 264.8125 120.121094 C 264.613281 121.441406 264.386719 122.753906 264.128906 124.0625 C 263.867188 125.371094 263.574219 126.671875 263.25 127.964844 C 262.925781 129.261719 262.570312 130.546875 262.183594 131.820312 C 261.796875 133.097656 261.378906 134.363281 260.929688 135.621094 C 260.480469 136.875 260 138.121094 259.492188 139.351562 C 258.980469 140.585938 258.441406 141.804688 257.871094 143.007812 C 257.300781 144.214844 256.703125 145.40625 256.074219 146.582031 C 255.445312 147.757812 254.785156 148.917969 254.101562 150.0625 C 253.414062 151.207031 252.703125 152.335938 251.960938 153.441406 C 251.222656 154.550781 250.453125 155.640625 249.660156 156.714844 C 248.863281 157.785156 248.042969 158.835938 247.199219 159.867188 C 246.351562 160.898438 245.480469 161.910156 244.585938 162.898438 C 243.691406 163.886719 242.769531 164.851562 241.828125 165.792969 C 240.882812 166.738281 239.917969 167.65625 238.929688 168.550781 C 237.941406 169.449219 236.933594 170.320312 235.902344 171.164062 C 234.871094 172.011719 233.820312 172.832031 232.75 173.625 C 231.679688 174.421875 230.585938 175.1875 229.480469 175.929688 C 228.371094 176.671875 227.242188 177.382812 226.097656 178.070312 C 224.957031 178.757812 223.796875 179.414062 222.621094 180.042969 C 221.441406 180.671875 220.253906 181.269531 219.046875 181.839844 C 217.839844 182.410156 216.621094 182.953125 215.390625 183.460938 C 214.15625 183.972656 212.914062 184.453125 211.65625 184.902344 C 210.402344 185.351562 209.136719 185.769531 207.859375 186.15625 C 206.582031 186.542969 205.296875 186.898438 204.003906 187.222656 C 202.710938 187.546875 201.410156 187.839844 200.101562 188.101562 C 198.792969 188.359375 197.480469 188.589844 196.160156 188.785156 C 194.839844 188.980469 193.519531 189.144531 192.191406 189.273438 C 190.863281 189.40625 189.53125 189.503906 188.199219 189.570312 C 186.867188 189.636719 185.535156 189.667969 184.203125 189.667969 C 182.867188 189.667969 181.535156 189.636719 180.203125 189.570312 C 178.871094 189.503906 177.542969 189.40625 176.214844 189.277344 C 174.886719 189.144531 173.5625 188.980469 172.242188 188.785156 C 170.925781 188.589844 169.609375 188.363281 168.300781 188.101562 C 166.996094 187.84375 165.695312 187.550781 164.398438 187.226562 C 163.105469 186.902344 161.820312 186.546875 160.542969 186.160156 C 159.269531 185.773438 158.003906 185.355469 156.746094 184.90625 C 155.492188 184.457031 154.246094 183.976562 153.015625 183.464844 C 151.78125 182.953125 150.5625 182.414062 149.355469 181.84375 C 148.152344 181.273438 146.960938 180.675781 145.785156 180.046875 C 144.609375 179.417969 143.449219 178.761719 142.304688 178.074219 C 141.160156 177.386719 140.035156 176.675781 138.925781 175.933594 C 137.816406 175.191406 136.726562 174.425781 135.652344 173.632812 C 134.582031 172.835938 133.53125 172.015625 132.5 171.171875 C 131.46875 170.324219 130.460938 169.453125 129.472656 168.558594 C 128.484375 167.660156 127.515625 166.742188 126.574219 165.800781 C 125.632812 164.855469 124.710938 163.890625 123.816406 162.902344 C 122.921875 161.914062 122.050781 160.902344 121.203125 159.871094 C 120.355469 158.84375 119.535156 157.789062 118.742188 156.71875 C 117.949219 155.648438 117.179688 154.558594 116.4375 153.449219 C 115.699219 152.339844 114.984375 151.214844 114.300781 150.070312 C 113.613281 148.925781 112.957031 147.765625 112.328125 146.589844 C 111.699219 145.414062 111.097656 144.222656 110.53125 143.015625 C 109.960938 141.808594 109.417969 140.589844 108.910156 139.359375 C 108.398438 138.125 107.917969 136.882812 107.46875 135.625 C 107.019531 134.371094 106.601562 133.105469 106.214844 131.828125 C 105.828125 130.550781 105.472656 129.265625 105.148438 127.972656 C 104.824219 126.679688 104.53125 125.378906 104.269531 124.070312 C 104.011719 122.761719 103.785156 121.449219 103.585938 120.128906 C 103.390625 118.808594 103.230469 117.488281 103.097656 116.160156 C 102.96875 114.832031 102.871094 113.503906 102.804688 112.171875 C 102.738281 110.835938 102.707031 109.503906 102.707031 108.171875 C 102.707031 106.835938 102.738281 105.503906 102.804688 104.171875 C 102.871094 102.839844 102.96875 101.511719 103.097656 100.183594 C 103.230469 98.855469 103.394531 97.53125 103.589844 96.214844 C 103.785156 94.894531 104.011719 93.578125 104.273438 92.273438 C 104.53125 90.964844 104.824219 89.664062 105.148438 88.367188 C 105.472656 87.074219 105.828125 85.789062 106.214844 84.515625 C 106.605469 83.238281 107.023438 81.972656 107.472656 80.714844 C 107.921875 79.460938 108.402344 78.214844 108.910156 76.984375 C 109.421875 75.75 109.960938 74.53125 110.53125 73.328125 C 111.101562 72.121094 111.703125 70.929688 112.332031 69.753906 C 112.960938 68.578125 113.617188 67.417969 114.304688 66.273438 C 114.988281 65.128906 115.703125 64.003906 116.445312 62.894531 C 117.183594 61.785156 117.953125 60.695312 118.746094 59.625 C 119.542969 58.554688 120.363281 57.503906 121.207031 56.472656 C 122.054688 55.441406 122.925781 54.429688 123.820312 53.441406 C 124.71875 52.453125 125.636719 51.488281 126.582031 50.546875 C 127.523438 49.601562 128.488281 48.683594 129.476562 47.789062 C 130.464844 46.890625 131.476562 46.019531 132.507812 45.175781 C 133.539062 44.328125 134.589844 43.507812 135.660156 42.714844 C 136.730469 41.921875 137.820312 41.152344 138.929688 40.410156 C 140.039062 39.671875 141.167969 38.957031 142.3125 38.273438 C 143.453125 37.585938 144.613281 36.929688 145.792969 36.300781 C 146.96875 35.671875 148.160156 35.074219 149.363281 34.503906 C 150.570312 33.933594 151.789062 33.390625 153.023438 32.882812 C 154.253906 32.371094 155.5 31.890625 156.753906 31.441406 C 158.011719 30.992188 159.277344 30.574219 160.550781 30.1875 C 161.828125 29.800781 163.113281 29.445312 164.40625 29.121094 C 165.703125 28.796875 167.003906 28.507812 168.3125 28.246094 C 169.617188 27.988281 170.933594 27.757812 172.253906 27.5625 C 173.570312 27.367188 174.894531 27.203125 176.222656 27.074219 C 177.550781 26.945312 178.878906 26.84375 180.210938 26.78125 C 181.542969 26.714844 182.875 26.683594 184.210938 26.683594 C 185.546875 26.679688 186.878906 26.707031 188.210938 26.765625 C 189.546875 26.828125 190.878906 26.921875 192.207031 27.046875 C 193.535156 27.175781 194.859375 27.335938 196.179688 27.527344 C 197.5 27.71875 198.816406 27.941406 200.128906 28.199219 C 201.4375 28.457031 202.738281 28.746094 204.035156 29.066406 C 205.332031 29.386719 206.617188 29.742188 207.894531 30.125 C 209.175781 30.507812 210.441406 30.925781 211.699219 31.371094 C 212.957031 31.820312 214.203125 32.296875 215.4375 32.804688 C 216.671875 33.316406 217.894531 33.851562 219.101562 34.421875 C 220.308594 34.992188 221.5 35.589844 222.679688 36.214844 C 223.855469 36.84375 225.019531 37.5 226.164062 38.1875 C 227.308594 38.871094 228.4375 39.582031 229.546875 40.324219 C 230.660156 41.066406 231.75 41.832031 232.824219 42.625 C 233.894531 43.421875 234.949219 44.242188 235.980469 45.085938 C 237.011719 45.933594 238.023438 46.804688 239.011719 47.703125 C 240.003906 48.597656 240.96875 49.519531 241.914062 50.460938 C 242.855469 51.40625 243.777344 52.371094 244.671875 53.359375 C 245.570312 54.351562 246.441406 55.359375 247.285156 56.394531 C 248.132812 57.425781 248.953125 58.476562 249.746094 59.550781 C 250.542969 60.625 251.308594 61.714844 252.050781 62.824219 C 252.789062 63.9375 253.503906 65.0625 254.1875 66.210938 C 254.875 67.355469 255.53125 68.515625 256.15625 69.695312 C 256.785156 70.875 257.382812 72.066406 257.953125 73.273438 C 258.519531 74.480469 259.058594 75.703125 259.566406 76.9375 C 260.078125 78.171875 260.554688 79.417969 261 80.675781 C 261.449219 81.933594 261.863281 83.199219 262.25 84.476562 C 262.632812 85.757812 262.988281 87.042969 263.308594 88.339844 C 263.628906 89.632812 263.917969 90.9375 264.175781 92.246094 C 264.429688 93.558594 264.65625 94.871094 264.847656 96.195312 C 265.039062 97.515625 265.199219 98.839844 265.324219 100.167969 C 265.453125 101.496094 265.546875 102.828125 265.605469 104.160156 C 265.667969 105.496094 265.695312 106.828125 265.691406 108.164062 Z M 265.691406 108.164062 " fill-opacity="1" fill-rule="nonzero"/></g><path fill="#ffffff" d="M 247.066406 160.042969 C 246.105469 161.210938 245.109375 162.347656 244.085938 163.457031 C 243.058594 164.566406 242.003906 165.648438 240.917969 166.699219 C 239.832031 167.753906 238.71875 168.773438 237.578125 169.761719 C 236.433594 170.753906 235.265625 171.710938 234.070312 172.632812 C 232.875 173.558594 231.65625 174.449219 230.410156 175.308594 C 229.164062 176.164062 227.898438 176.984375 226.605469 177.773438 C 225.316406 178.558594 224.003906 179.308594 222.671875 180.019531 C 221.339844 180.734375 219.988281 181.410156 218.617188 182.046875 C 217.246094 182.6875 215.859375 183.285156 214.457031 183.847656 C 213.054688 184.40625 211.636719 184.929688 210.203125 185.410156 C 208.769531 185.894531 207.324219 186.335938 205.867188 186.738281 C 204.410156 187.140625 202.945312 187.5 201.464844 187.820312 C 199.988281 188.140625 198.503906 188.417969 197.011719 188.65625 C 195.519531 188.894531 194.019531 189.089844 192.519531 189.242188 C 191.015625 189.398438 189.507812 189.511719 187.996094 189.582031 C 186.488281 189.652344 184.976562 189.679688 183.464844 189.664062 C 181.953125 189.652344 180.445312 189.597656 178.9375 189.5 C 177.429688 189.402344 175.921875 189.261719 174.421875 189.078125 C 172.921875 188.898438 171.429688 188.675781 169.941406 188.410156 C 168.453125 188.144531 166.972656 187.839844 165.5 187.492188 C 164.03125 187.148438 162.570312 186.757812 161.121094 186.332031 C 159.671875 185.902344 158.234375 185.433594 156.8125 184.925781 C 155.386719 184.417969 153.980469 183.871094 152.585938 183.285156 C 151.191406 182.699219 149.816406 182.074219 148.457031 181.410156 C 147.101562 180.75 145.761719 180.050781 144.441406 179.3125 C 143.121094 178.574219 141.824219 177.800781 140.546875 176.992188 C 139.273438 176.183594 138.019531 175.335938 136.789062 174.457031 C 135.5625 173.578125 134.355469 172.667969 133.179688 171.71875 C 132 170.773438 130.847656 169.796875 129.722656 168.785156 C 128.601562 167.773438 127.503906 166.734375 126.4375 165.664062 C 125.371094 164.589844 124.335938 163.492188 123.332031 162.363281 C 122.328125 161.234375 121.351562 160.078125 120.414062 158.894531 C 129.09375 146.515625 142.550781 137.925781 170.847656 137.605469 C 203.503906 137.210938 227.527344 136.019531 237.445312 147 C 241.058594 151.046875 244.265625 155.398438 247.066406 160.042969 Z M 247.066406 160.042969 " fill-opacity="1" fill-rule="nonzero"/><path fill="#14213d" d="M 157.210938 87.613281 C 141.542969 81.945312 144.097656 61.277344 146.320312 60.835938 C 148.542969 60.390625 153.320312 64.058594 153.542969 64.167969 C 153.765625 64.28125 152.433594 54.945312 155.433594 50.613281 C 158.433594 46.277344 169.878906 55.054688 178.65625 55.167969 C 187.4375 55.277344 208.660156 55.835938 214.882812 61.390625 C 221.105469 66.945312 217.875 78.835938 217.875 78.835938 C 217.875 78.835938 224.996094 80.726562 223.546875 90.726562 C 222.101562 100.730469 210.878906 109.316406 206.878906 116.523438 C 202.878906 123.730469 179.117188 125.0625 175.429688 114.617188 " fill-opacity="1" fill-rule="nonzero"/><path fill="#ffb5a6" d="M 183.019531 149.648438 C 171.628906 149.648438 169.953125 140.140625 169.90625 138.535156 C 169.90625 138.351562 169.882812 138.027344 169.90625 137.59375 C 169.882812 136.699219 169.882812 135.320312 169.882812 133.710938 C 169.929688 129.371094 169.976562 123.378906 169.90625 120.804688 L 191.652344 113.019531 L 195.605469 111.597656 L 199.992188 110.035156 C 199.992188 110.035156 199.96875 110.882812 199.921875 112.285156 C 199.898438 113.089844 199.875 114.078125 199.851562 115.203125 C 199.855469 115.332031 199.847656 115.464844 199.828125 115.59375 C 199.808594 117.222656 199.785156 119.085938 199.738281 121.039062 C 199.667969 127.167969 199.644531 134.058594 199.96875 136.539062 C 200.5625 141.359375 194.40625 149.648438 183.019531 149.648438 Z M 183.019531 149.648438 " fill-opacity="1" fill-rule="nonzero"/><path fill="#e86b70" d="M 200.011719 115.246094 C 199.960938 115.367188 199.898438 115.480469 199.828125 115.59375 C 192.113281 131.460938 180.515625 137.753906 169.902344 137.59375 C 169.882812 136.699219 169.882812 135.320312 169.882812 133.710938 C 169.925781 129.371094 169.972656 123.378906 169.902344 120.804688 L 191.652344 113.019531 L 199.851562 115.203125 Z M 200.011719 115.246094 " fill-opacity="1" fill-rule="nonzero"/><path fill="#ffb5a6" d="M 156.78125 73.503906 C 169.449219 88.691406 200.734375 85.949219 200.734375 85.949219 C 200.734375 85.949219 201.328125 103.726562 204.4375 103.578125 C 207.550781 103.433594 208.070312 93.578125 215.699219 95.210938 C 223.328125 96.84375 218.589844 111.582031 212.660156 112.398438 C 206.734375 113.210938 205.253906 108.175781 205.253906 108.175781 C 205.253906 108.175781 194.328125 129.84375 176.992188 129.84375 C 159.65625 129.84375 155.21875 113.226562 155.324219 104.171875 C 155.425781 95.121094 156.78125 73.503906 156.78125 73.503906 Z M 156.78125 73.503906 " fill-opacity="1" fill-rule="nonzero"/></svg>