<svg width="351" height="100" viewBox="0 0 351 100" fill="none" xmlns="http://www.w3.org/2000/svg">
<g clip-path="url(#clip0_754_35959)">
<path d="M68.5647 94.3084H38.832V46.6577H68.5647V56.9978H52.3602V64.485H67.3654V74.8251H52.3602V83.8152H68.5647V94.3084Z" fill="#0E2F56"/>
<path d="M154.285 56.5385C152.683 56.5385 151.257 56.8585 149.999 57.4987C148.742 58.1389 147.663 59.0678 146.767 60.282C145.879 61.4997 145.202 62.9819 144.734 64.7354C144.266 66.4819 144.032 68.4616 144.032 70.6778C144.032 73.6768 144.431 76.1992 145.232 78.2485C146.029 80.2907 147.243 81.832 148.873 82.8688C150.511 83.9091 152.562 84.4275 155.03 84.4275C157.272 84.4275 159.422 84.1352 161.48 83.5507C163.546 82.9662 165.634 82.2634 167.74 81.4354V92.3182C165.524 93.2576 163.257 93.9291 160.939 94.3361C158.617 94.7536 156.157 94.9624 153.553 94.9624C148.12 94.9624 143.674 93.9395 140.215 91.8868C136.753 89.8271 134.208 86.9742 132.581 83.328C130.95 79.6749 130.139 75.4373 130.139 70.6221C130.139 67.0142 130.665 63.7125 131.718 60.7135C132.778 57.7075 134.34 55.105 136.398 52.9062C138.453 50.7004 140.994 48.9921 144.018 47.7849C147.038 46.5811 150.504 45.9757 154.416 45.9757C156.833 45.9757 159.381 46.2471 162.065 46.7829C164.745 47.3117 167.367 48.1606 169.933 49.3296L165.78 59.4749C163.955 58.6503 162.109 57.9545 160.237 57.3874C158.365 56.8237 156.38 56.5385 154.285 56.5385Z" fill="#0E2F56"/>
<path d="M208.218 94.3083L205.747 85.3738H189.484L186.939 94.3083H172.08L188.416 46.4628H206.463L223.004 94.3083H208.218ZM202.939 74.8249L200.774 67.0038C200.548 66.1514 200.219 64.9406 199.78 63.3715C199.348 61.7955 198.921 60.1672 198.493 58.4868C198.072 56.7994 197.751 55.4112 197.528 54.3257C197.323 55.4112 197.03 56.7541 196.65 58.3476C196.277 59.9445 195.893 61.5276 195.495 63.0932C195.093 64.6518 194.742 65.9565 194.442 67.0038L192.292 74.8249H202.939Z" fill="#0E2F56"/>
<path d="M244.82 46.6577C249.361 46.6577 253.142 47.1865 256.155 48.2442C259.168 49.2949 261.427 50.8605 262.941 52.948C264.462 55.0356 265.222 57.6345 265.222 60.7414C265.222 62.6723 264.879 64.4293 264.199 66.0158C263.515 67.6023 262.539 69.0218 261.274 70.2743C260.005 71.5268 258.495 72.6193 256.74 73.5447L271.321 94.3084H255.979L245.362 76.9682H241.939V94.3084H228.411V46.6577H244.82ZM244.616 56.3994H241.939V67.2961H244.469C246.546 67.2961 248.246 66.8612 249.574 65.988C250.897 65.1182 251.563 63.563 251.563 61.3259C251.563 59.7881 251.01 58.5808 249.91 57.7076C248.817 56.8378 247.051 56.3994 244.616 56.3994Z" fill="#0E2F56"/>
<path d="M305.606 94.3084H275.873V46.6577H305.606V56.9978H289.401V64.485H304.406V74.8251H289.401V83.8152H305.606V94.3084Z" fill="#0E2F56"/>
<mask id="mask0_754_35959" style="mask-type:luminance" maskUnits="userSpaceOnUse" x="68" y="0" width="92" height="100">
<path d="M68.3281 0.410645H159.833V99.0868H68.3281V0.410645Z" fill="white"/>
</mask>
<g mask="url(#mask0_754_35959)">
<path d="M152.642 6.74275C148.547 3.03048 143.059 0.960374 137.402 0.97777C131.56 0.998644 126.072 3.17312 121.94 7.10458L114.061 14.6022L106.375 7.29246C97.8198 -0.848792 83.8821 -1.10625 75.2424 6.95846C66.515 15.1032 66.4638 28.4841 75.0889 36.6879L116.814 76.3922C121.574 80.9255 121.797 88.3048 117.128 92.9182C112.35 97.6429 104.419 97.6986 99.5675 93.0852L89.2312 83.2496C88.7961 82.8356 88.7523 82.178 89.1252 81.7083C90.6535 79.7983 91.4981 77.3733 91.308 74.757C90.9351 69.5939 86.5 65.4398 81.0668 65.1719C74.7744 64.8587 69.5606 69.6809 69.6447 75.6163C69.7178 81.1169 74.4307 85.6572 80.2076 85.7929C82.0723 85.8381 83.831 85.4345 85.3812 84.6865C85.8529 84.4569 86.4232 84.5543 86.7962 84.9092L97.4724 95.0718C100.445 97.9004 104.353 99.3129 108.258 99.3129C112.163 99.3129 116.072 97.9004 119.044 95.0718C124.989 89.4112 124.989 80.2019 119.044 74.5447L77.1766 34.7013C69.758 27.6421 69.758 16.1539 77.1766 9.09467C84.5988 2.03544 96.6717 2.03544 104.09 9.09467L112.975 17.5525C113.275 17.8343 113.67 17.97 114.061 17.9596C114.452 17.97 114.843 17.8343 115.143 17.5525L123.852 9.26167C127.465 5.82425 132.342 3.80285 137.45 3.79242C142.547 3.78198 147.34 5.66769 150.945 9.09467C154.543 12.5216 156.525 17.0794 156.517 21.9258C156.51 26.7897 154.378 31.4344 150.766 34.8718L147.951 37.5508C147.72 37.77 147.406 37.8952 147.077 37.8952H138.686C138.218 37.8952 137.79 37.6447 137.585 37.2481L133.53 29.5348C133.077 28.6685 131.783 28.6685 131.329 29.5348L124.364 42.78C123.911 43.6463 122.613 43.6463 122.163 42.78L119.783 38.2501C119.329 37.3872 118.035 37.3872 117.582 38.2501L115.202 42.78C114.748 43.6428 113.454 43.6428 113.001 42.78L106.039 29.5313C105.586 28.665 104.291 28.665 103.838 29.5313L99.7832 37.2446C99.5748 37.6412 99.1506 37.8917 98.6826 37.8917H91.2568C90.4451 37.8917 89.7431 38.4832 89.7175 39.2556C89.6919 40.0523 90.361 40.7029 91.1946 40.7029H100.511C100.975 40.7029 101.403 40.4524 101.611 40.0558L103.838 35.8181C104.291 34.9518 105.586 34.9518 106.039 35.8181L113.001 49.0668C113.454 49.9296 114.748 49.9296 115.202 49.0668L117.582 44.5369C118.035 43.6741 119.329 43.6741 119.783 44.5369L122.163 49.0668C122.613 49.9331 123.911 49.9331 124.364 49.0668L131.326 35.8181C131.779 34.9588 133.073 34.9553 133.527 35.8181L135.753 40.0592C135.965 40.4559 136.39 40.7064 136.854 40.7064H148.196C148.196 40.7064 148.196 40.7064 148.199 40.7064C148.291 40.7064 148.378 40.6959 148.466 40.682C148.47 40.682 148.477 40.6785 148.484 40.6785C148.569 40.6646 148.656 40.6403 148.737 40.609C148.744 40.6055 148.751 40.6055 148.759 40.602C148.839 40.5707 148.92 40.5289 148.993 40.4837C149 40.4802 149.007 40.4767 149.015 40.4733C149.095 40.4211 149.168 40.3654 149.238 40.3028C149.238 40.2993 149.238 40.2993 149.241 40.2958L152.817 36.8967C157.047 32.8678 159.519 27.416 159.471 21.724C159.42 16.0286 156.996 10.6916 152.642 6.74275ZM72.599 75.4772C72.599 71.337 76.1382 67.9691 80.4891 67.9691C84.8364 67.9691 88.3793 71.337 88.3793 75.4772C88.3793 79.6174 84.8364 82.9852 80.4891 82.9852C76.1382 82.9852 72.599 79.6174 72.599 75.4772Z" fill="#0E2F56"/>
</g>
</g>
<defs>
<clipPath id="clip0_754_35959">
<rect width="351" height="100" fill="white"/>
</clipPath>
</defs>
</svg>
