<svg width="354" height="28" viewBox="0 0 354 28" fill="none" xmlns="http://www.w3.org/2000/svg">
<path d="M16.4459 0.818181H23.5538V17.5909C23.5538 19.5852 23.0766 21.3111 22.122 22.7685C21.176 24.2173 19.855 25.3381 18.159 26.1307C16.4629 26.9148 14.4942 27.3068 12.2527 27.3068C9.99418 27.3068 8.01691 26.9148 6.32089 26.1307C4.62486 25.3381 3.30384 24.2173 2.35782 22.7685C1.42032 21.3111 0.951569 19.5852 0.951569 17.5909V0.818181H8.05952V16.9773C8.05952 17.7869 8.2385 18.5114 8.59646 19.1506C8.95441 19.7812 9.44873 20.2756 10.0794 20.6335C10.7186 20.9915 11.443 21.1705 12.2527 21.1705C13.0709 21.1705 13.7953 20.9915 14.426 20.6335C15.0567 20.2756 15.551 19.7812 15.909 19.1506C16.2669 18.5114 16.4459 17.7869 16.4459 16.9773V0.818181ZM53.1854 0.818181V27H47.2536L37.7934 13.2443H37.64V27H30.532V0.818181H36.5661L45.8729 14.5227H46.0775V0.818181H53.1854ZM67.2556 0.818181V27H60.1477V0.818181H67.2556ZM99.5879 13.9091C99.5879 16.8239 99.0211 19.2827 97.8876 21.2855C96.7541 23.2798 95.2242 24.7926 93.2981 25.8239C91.372 26.8466 89.2242 27.358 86.8549 27.358C84.4685 27.358 82.3123 26.8423 80.3862 25.8111C78.4685 24.7713 76.943 23.2543 75.8095 21.2599C74.6845 19.2571 74.122 16.8068 74.122 13.9091C74.122 10.9943 74.6845 8.53977 75.8095 6.54545C76.943 4.54261 78.4685 3.02983 80.3862 2.0071C82.3123 0.975851 84.4685 0.460226 86.8549 0.460226C89.2242 0.460226 91.372 0.975851 93.2981 2.0071C95.2242 3.02983 96.7541 4.54261 97.8876 6.54545C99.0211 8.53977 99.5879 10.9943 99.5879 13.9091ZM92.2754 13.9091C92.2754 12.3409 92.0666 11.0199 91.6489 9.94602C91.2399 8.86364 90.6305 8.04545 89.8208 7.49148C89.0197 6.92898 88.031 6.64773 86.8549 6.64773C85.6788 6.64773 84.6859 6.92898 83.8762 7.49148C83.0751 8.04545 82.4657 8.86364 82.0481 9.94602C81.639 11.0199 81.4345 12.3409 81.4345 13.9091C81.4345 15.4773 81.639 16.8026 82.0481 17.8849C82.4657 18.9588 83.0751 19.777 83.8762 20.3395C84.6859 20.8935 85.6788 21.1705 86.8549 21.1705C88.031 21.1705 89.0197 20.8935 89.8208 20.3395C90.6305 19.777 91.2399 18.9588 91.6489 17.8849C92.0666 16.8026 92.2754 15.4773 92.2754 13.9091ZM129.13 0.818181V27H123.198L113.738 13.2443H113.585V27H106.477V0.818181H112.511L121.817 14.5227H122.022V0.818181H129.13ZM146.864 27V0.818181H153.972V11.0455H163.381V0.818181H170.489V27H163.381V16.7727H153.972V27H146.864ZM202.828 13.9091C202.828 16.8239 202.261 19.2827 201.127 21.2855C199.994 23.2798 198.464 24.7926 196.538 25.8239C194.612 26.8466 192.464 27.358 190.095 27.358C187.708 27.358 185.552 26.8423 183.626 25.8111C181.708 24.7713 180.183 23.2543 179.049 21.2599C177.924 19.2571 177.362 16.8068 177.362 13.9091C177.362 10.9943 177.924 8.53977 179.049 6.54545C180.183 4.54261 181.708 3.02983 183.626 2.0071C185.552 0.975851 187.708 0.460226 190.095 0.460226C192.464 0.460226 194.612 0.975851 196.538 2.0071C198.464 3.02983 199.994 4.54261 201.127 6.54545C202.261 8.53977 202.828 10.9943 202.828 13.9091ZM195.515 13.9091C195.515 12.3409 195.306 11.0199 194.889 9.94602C194.48 8.86364 193.87 8.04545 193.061 7.49148C192.26 6.92898 191.271 6.64773 190.095 6.64773C188.919 6.64773 187.926 6.92898 187.116 7.49148C186.315 8.04545 185.706 8.86364 185.288 9.94602C184.879 11.0199 184.674 12.3409 184.674 13.9091C184.674 15.4773 184.879 16.8026 185.288 17.8849C185.706 18.9588 186.315 19.777 187.116 20.3395C187.926 20.8935 188.919 21.1705 190.095 21.1705C191.271 21.1705 192.26 20.8935 193.061 20.3395C193.87 19.777 194.48 18.9588 194.889 17.8849C195.306 16.8026 195.515 15.4773 195.515 13.9091ZM223.83 9C223.762 8.14773 223.442 7.48295 222.871 7.00568C222.309 6.52841 221.452 6.28977 220.302 6.28977C219.569 6.28977 218.968 6.37926 218.499 6.55824C218.039 6.72869 217.698 6.96307 217.476 7.26136C217.255 7.55966 217.14 7.90057 217.131 8.28409C217.114 8.59943 217.17 8.88494 217.297 9.14062C217.434 9.38778 217.647 9.61364 217.937 9.81818C218.226 10.0142 218.597 10.1932 219.049 10.3551C219.501 10.517 220.037 10.6619 220.66 10.7898L222.807 11.25C224.256 11.5568 225.496 11.9616 226.527 12.4645C227.559 12.9673 228.402 13.5597 229.059 14.2415C229.715 14.9148 230.197 15.6733 230.503 16.517C230.819 17.3608 230.981 18.2812 230.989 19.2784C230.981 21 230.55 22.4574 229.698 23.6506C228.846 24.8438 227.627 25.7514 226.042 26.3736C224.465 26.9957 222.569 27.3068 220.353 27.3068C218.077 27.3068 216.091 26.9702 214.395 26.2969C212.708 25.6236 211.395 24.5881 210.458 23.1903C209.529 21.7841 209.06 19.9858 209.052 17.7955H215.802C215.844 18.5966 216.045 19.2699 216.402 19.8153C216.76 20.3608 217.263 20.7741 217.911 21.0554C218.567 21.3366 219.347 21.4773 220.251 21.4773C221.009 21.4773 221.644 21.3835 222.155 21.196C222.667 21.0085 223.054 20.7486 223.319 20.4162C223.583 20.0838 223.719 19.7045 223.728 19.2784C223.719 18.8778 223.587 18.5284 223.331 18.2301C223.084 17.9233 222.675 17.6506 222.104 17.4119C221.533 17.1648 220.762 16.9347 219.79 16.7216L217.182 16.1591C214.864 15.6562 213.036 14.8168 211.698 13.6406C210.368 12.456 209.708 10.8409 209.716 8.79545C209.708 7.13352 210.151 5.6804 211.046 4.43608C211.949 3.18324 213.198 2.20739 214.792 1.50852C216.394 0.809658 218.231 0.460226 220.302 0.460226C222.415 0.460226 224.243 0.81392 225.786 1.52131C227.329 2.22869 228.518 3.22585 229.353 4.51278C230.197 5.79119 230.623 7.28693 230.631 9H223.83ZM237.293 27V0.818181H248.594C250.537 0.818181 252.238 1.2017 253.695 1.96875C255.152 2.73579 256.286 3.81392 257.096 5.20312C257.905 6.59233 258.31 8.21591 258.31 10.0739C258.31 11.9489 257.892 13.5724 257.057 14.9446C256.23 16.3168 255.067 17.3736 253.567 18.1151C252.076 18.8565 250.333 19.2273 248.338 19.2273H241.588V13.7045H246.907C247.742 13.7045 248.453 13.5597 249.042 13.2699C249.638 12.9716 250.094 12.5497 250.409 12.0043C250.733 11.4588 250.895 10.8153 250.895 10.0739C250.895 9.32386 250.733 8.68466 250.409 8.15625C250.094 7.61932 249.638 7.21023 249.042 6.92898C248.453 6.6392 247.742 6.49432 246.907 6.49432H244.401V27H237.293ZM271.626 0.818181V27H264.518V0.818181H271.626ZM277.879 6.54545V0.818181H300.634V6.54545H292.759V27H285.754V6.54545H277.879ZM310.406 27H302.735L311.377 0.818181H321.093L329.735 27H322.065L316.338 8.02841H316.133L310.406 27ZM308.974 16.6705H323.394V21.9886H308.974V16.6705ZM335.857 27V0.818181H342.965V21.2727H353.55V27H335.857Z" fill="#0E2F56"/>
</svg>
