<svg width="82" height="82" viewBox="0 0 82 82" fill="none" xmlns="http://www.w3.org/2000/svg">
<g id="Vector">
<path d="M81 41C81 52.8862 75.8156 63.5615 67.5846 70.888C60.5177 77.1783 51.2052 81 41 81C30.7948 81 21.4823 77.1783 14.4154 70.888C6.18445 63.5615 1 52.8862 1 41C1 18.9086 18.9086 1 41 1C63.0914 1 81 18.9086 81 41Z" fill="#D9D9D9"/>
<path d="M54.3333 31C54.3333 38.3638 48.3638 44.3333 41 44.3333C33.6362 44.3333 27.6667 38.3638 27.6667 31C27.6667 23.6362 33.6362 17.6667 41 17.6667C48.3638 17.6667 54.3333 23.6362 54.3333 31Z" fill="#D9D9D9"/>
<path d="M67.5846 70.888C61.4983 62.8554 51.8551 57.6667 41 57.6667C30.1449 57.6667 20.5017 62.8554 14.4154 70.888M67.5846 70.888C75.8156 63.5615 81 52.8862 81 41C81 18.9086 63.0914 1 41 1C18.9086 1 1 18.9086 1 41C1 52.8862 6.18445 63.5615 14.4154 70.888M67.5846 70.888C60.5178 77.1783 51.2052 81 41 81C30.7948 81 21.4823 77.1783 14.4154 70.888M54.3333 31C54.3333 38.3638 48.3638 44.3333 41 44.3333C33.6362 44.3333 27.6667 38.3638 27.6667 31C27.6667 23.6362 33.6362 17.6667 41 17.6667C48.3638 17.6667 54.3333 23.6362 54.3333 31Z" stroke="white" stroke-width="1.5" stroke-linecap="round" stroke-linejoin="round"/>
</g>
</svg>
