<svg width="193" height="75" viewBox="0 0 193 75" fill="none" xmlns="http://www.w3.org/2000/svg">
<path d="M21.6661 71.6383H0.205566V35.4988H21.6661V43.341H9.96996V49.0194H20.8005V56.8616H9.96996V63.68H21.6661V71.6383Z" fill="white"/>
<path d="M83.5468 42.6749C82.3909 42.6749 81.3617 42.9177 80.4538 43.4032C79.546 43.8887 78.7675 44.5932 78.1209 45.5141C77.4797 46.4377 76.9914 47.5618 76.6536 48.8917C76.3158 50.2163 76.1469 51.7177 76.1469 53.3985C76.1469 55.6731 76.4346 57.5862 77.0125 59.1403C77.5879 60.6893 78.464 61.8582 79.641 62.6445C80.8233 63.4335 82.3038 63.8267 84.0851 63.8267C85.7029 63.8267 87.2546 63.605 88.7404 63.1617C90.2314 62.7184 91.7383 62.1854 93.2584 61.5574V69.8112C91.6591 70.5237 90.0229 71.0329 88.3498 71.3417C86.674 71.6583 84.898 71.8166 83.019 71.8166C79.0974 71.8166 75.8883 71.0409 73.3918 69.484C70.8926 67.9219 69.0559 65.7582 67.8815 62.9928C66.7045 60.2222 66.1187 57.0083 66.1187 53.3563C66.1187 50.62 66.4987 48.1159 67.2587 45.8413C68.024 43.5615 69.1509 41.5878 70.6367 39.9201C72.1198 38.2472 73.9539 36.9516 76.1364 36.0359C78.3162 35.123 80.818 34.6638 83.6418 34.6638C85.3862 34.6638 87.2256 34.8696 89.1626 35.276C91.097 35.6771 92.9892 36.3209 94.8418 37.2075L91.8439 44.902C90.527 44.2766 89.1943 43.7488 87.8431 43.3187C86.4919 42.8913 85.0589 42.6749 83.5468 42.6749Z" fill="white"/>
<path d="M122.464 71.6381L120.681 64.862H108.942L107.105 71.6381H96.3804L108.172 35.3508H121.198L133.137 71.6381H122.464ZM118.654 56.8615L117.091 50.9297C116.928 50.2832 116.69 49.3649 116.374 48.1749C116.062 46.9796 115.753 45.7446 115.445 44.4702C115.141 43.1904 114.909 42.1375 114.748 41.3143C114.6 42.1375 114.389 43.1561 114.115 44.3646C113.845 45.5758 113.568 46.7764 113.281 47.9638C112.99 49.1459 112.737 50.1354 112.521 50.9297L110.969 56.8615H118.654Z" fill="white"/>
<path d="M148.893 35.1812C152.17 35.1812 154.899 35.5822 157.074 36.3844C159.248 37.1813 160.879 38.3687 161.972 39.9519C163.07 41.5351 163.619 43.5062 163.619 45.8626C163.619 47.3271 163.37 48.6596 162.88 49.8628C162.386 51.0661 161.681 52.1427 160.768 53.0926C159.853 54.0425 158.763 54.8711 157.496 55.573L168.02 71.3207H156.947L149.283 58.1695H146.813V71.3207H137.049V35.1812H148.893ZM148.745 42.5695H146.813V50.8339H148.639C150.138 50.8339 151.366 50.504 152.323 49.8417C153.279 49.1821 153.759 48.0026 153.759 46.3059C153.759 45.1396 153.361 44.224 152.566 43.5616C151.777 42.902 150.503 42.5695 148.745 42.5695Z" fill="white"/>
<path d="M192.768 71.3207H171.308V35.1812H192.768V43.0234H181.072V48.7018H191.903V56.544H181.072V63.3624H192.768V71.3207Z" fill="white"/>
<mask id="mask0_214_6783" style="mask-type:luminance" maskUnits="userSpaceOnUse" x="21" y="0" width="67" height="75">
<path d="M21.5029 0.106201H87.5498V74.9448H21.5029V0.106201Z" fill="white"/>
</mask>
<g mask="url(#mask0_214_6783)">
<path d="M82.3591 4.90853C79.4034 2.09304 75.4422 0.523022 71.3597 0.536215C67.1425 0.552047 63.1813 2.20123 60.1992 5.18295L54.5121 10.8693L48.9649 5.32544C42.7896 -0.849098 32.7296 -1.04436 26.4936 5.07213C20.1942 11.2493 20.1573 21.3977 26.3828 27.6198L56.4993 57.7325C59.9353 61.1707 60.0963 66.7674 56.7263 70.2663C53.2771 73.8497 47.553 73.8919 44.051 70.393L36.5905 62.9334C36.2765 62.6194 36.2448 62.1207 36.514 61.7645C37.6171 60.3158 38.2267 58.4766 38.0895 56.4923C37.8203 52.5765 34.6192 49.4259 30.6976 49.2227C26.1558 48.9853 22.3926 52.6425 22.4533 57.1441C22.506 61.3159 25.9077 64.7594 30.0774 64.8623C31.4233 64.8966 32.6927 64.5905 33.8116 64.0232C34.152 63.849 34.5637 63.9229 34.8329 64.1921L42.5389 71.8997C44.6844 74.0449 47.5055 75.1162 50.324 75.1162C53.1425 75.1162 55.9636 74.0449 58.1091 71.8997C62.4002 67.6065 62.4002 60.6219 58.1091 56.3314L27.8896 26.1131C22.5351 20.7592 22.5351 12.0462 27.8896 6.69229C33.2469 1.33838 41.9609 1.33838 47.3155 6.69229L53.7283 13.1069C53.9447 13.3207 54.2297 13.4236 54.5121 13.4157C54.7945 13.4236 55.0769 13.3207 55.2933 13.1069L61.5794 6.81894C64.1868 4.21192 67.7072 2.67883 71.394 2.67092C75.0728 2.663 78.5325 4.09317 81.1346 6.69229C83.7314 9.2914 85.1618 12.7481 85.1565 16.4238C85.1512 20.1127 83.6127 23.6353 81.0053 26.2424L78.9732 28.2742C78.807 28.4404 78.58 28.5354 78.3425 28.5354H72.286C71.9482 28.5354 71.6394 28.3454 71.4916 28.0446L68.5649 22.1946C68.2377 21.5376 67.3035 21.5376 66.9762 22.1946L61.9489 32.2401C61.6217 32.8972 60.6848 32.8972 60.3602 32.2401L58.6422 28.8045C58.315 28.1501 57.3807 28.1501 57.0535 28.8045L55.3355 32.2401C55.0083 32.8945 54.074 32.8945 53.7468 32.2401L48.7221 22.192C48.3949 21.5349 47.4606 21.5349 47.1334 22.192L44.2067 28.042C44.0563 28.3428 43.7502 28.5327 43.4124 28.5327H38.0525C37.4667 28.5327 36.96 28.9813 36.9415 29.5671C36.923 30.1714 37.406 30.6648 38.0077 30.6648H44.7319C45.0671 30.6648 45.3758 30.4748 45.5262 30.174L47.1334 26.9601C47.4606 26.3031 48.3949 26.3031 48.7221 26.9601L53.7468 37.0082C54.074 37.6626 55.0083 37.6626 55.3355 37.0082L57.0535 33.5727C57.3807 32.9183 58.315 32.9183 58.6422 33.5727L60.3602 37.0082C60.6848 37.6653 61.6217 37.6653 61.9489 37.0082L66.9736 26.9601C67.3008 26.3083 68.2351 26.3057 68.5623 26.9601L70.1695 30.1767C70.3225 30.4775 70.6287 30.6675 70.9638 30.6675H79.1501C79.1501 30.6675 79.1501 30.6675 79.1527 30.6675C79.2187 30.6675 79.282 30.6595 79.3453 30.649C79.348 30.649 79.3533 30.6463 79.3585 30.6463C79.4192 30.6358 79.4826 30.6173 79.5406 30.5936C79.5459 30.5909 79.5512 30.5909 79.5565 30.5883C79.6145 30.5645 79.6726 30.5329 79.7254 30.4986C79.7306 30.4959 79.7359 30.4933 79.7412 30.4907C79.7993 30.4511 79.852 30.4089 79.9022 30.3614C79.9022 30.3587 79.9022 30.3587 79.9048 30.3561L82.4858 27.7781C85.5391 24.7225 87.3231 20.5876 87.2888 16.2707C87.2519 11.9512 85.5022 7.90345 82.3591 4.90853ZM24.5856 57.0386C24.5856 53.8985 27.1402 51.3443 30.2806 51.3443C33.4184 51.3443 35.9756 53.8985 35.9756 57.0386C35.9756 60.1786 33.4184 62.7329 30.2806 62.7329C27.1402 62.7329 24.5856 60.1786 24.5856 57.0386Z" fill="white"/>
</g>
</svg>
