<svg width="159" height="14" viewBox="0 0 159 14" fill="none" xmlns="http://www.w3.org/2000/svg">
<path d="M151.129 13.5545V0.747803H154.268V10.753H158.941V13.5545H151.129Z" fill="white"/>
<path d="M139.893 13.5545H136.506L140.322 0.747803H144.611L148.427 13.5545H145.04L142.512 4.27464H142.421L139.893 13.5545ZM139.261 8.50185H145.627V11.1032H139.261V8.50185Z" fill="white"/>
<path d="M126.327 3.54927V0.747803H136.373V3.54927H132.896V13.5545H129.803V3.54927H126.327Z" fill="white"/>
<path d="M123.566 0.747803V13.5545H120.428V0.747803H123.566Z" fill="white"/>
<path d="M108.408 13.5545V0.747803H113.398C114.256 0.747803 115.006 0.935401 115.65 1.3106C116.293 1.68579 116.794 2.21315 117.151 2.89267C117.509 3.57219 117.687 4.36636 117.687 5.27517C117.687 6.19231 117.503 6.98648 117.134 7.65766C116.769 8.32885 116.256 8.84578 115.593 9.20847C114.935 9.57116 114.165 9.7525 113.285 9.7525H110.305V7.05109H112.653C113.021 7.05109 113.336 6.98022 113.595 6.83848C113.859 6.69257 114.06 6.48622 114.199 6.21941C114.342 5.9526 114.414 5.63786 114.414 5.27517C114.414 4.90831 114.342 4.59564 114.199 4.33718C114.06 4.07454 113.859 3.87443 113.595 3.73686C113.336 3.59512 113.021 3.52425 112.653 3.52425H111.546V13.5545H108.408Z" fill="white"/>
<path d="M102.464 4.74994C102.434 4.33305 102.293 4.00788 102.041 3.77443C101.792 3.54097 101.414 3.42424 100.906 3.42424C100.583 3.42424 100.317 3.46802 100.111 3.55556C99.9073 3.63894 99.7568 3.75358 99.659 3.89949C99.5611 4.0454 99.5103 4.21215 99.5066 4.39975C99.4991 4.554 99.5235 4.69366 99.58 4.81872C99.6402 4.93962 99.7342 5.05009 99.8622 5.15014C99.9901 5.24603 100.154 5.33357 100.353 5.41278C100.553 5.49199 100.79 5.56286 101.064 5.62539L102.013 5.85051C102.652 6.00059 103.2 6.19861 103.655 6.44457C104.11 6.69053 104.483 6.98027 104.773 7.31378C105.062 7.64311 105.275 8.01414 105.41 8.42686C105.55 8.83957 105.621 9.28981 105.625 9.77756C105.621 10.6197 105.431 11.3325 105.055 11.9162C104.679 12.4998 104.14 12.9438 103.441 13.2481C102.744 13.5524 101.907 13.7046 100.929 13.7046C99.9243 13.7046 99.0475 13.5399 98.2987 13.2106C97.5537 12.8813 96.9742 12.3748 96.5603 11.6911C96.1502 11.0032 95.9432 10.1236 95.9395 9.05218H98.9196C98.9384 9.44405 99.0268 9.77339 99.1849 10.0402C99.3429 10.307 99.5649 10.5092 99.8509 10.6468C100.141 10.7843 100.485 10.8531 100.884 10.8531C101.219 10.8531 101.499 10.8073 101.725 10.7156C101.951 10.6238 102.122 10.4967 102.238 10.3341C102.355 10.1715 102.415 9.986 102.419 9.77756C102.415 9.58163 102.357 9.4107 102.244 9.26479C102.135 9.11471 101.954 8.98131 101.702 8.86458C101.45 8.74369 101.11 8.63113 100.681 8.52691L99.5292 8.25176C98.5057 8.0058 97.6986 7.59517 97.1078 7.01987C96.5208 6.4404 96.2292 5.65041 96.233 4.64988C96.2292 3.83696 96.4249 3.12617 96.82 2.51752C97.2188 1.9047 97.7701 1.42737 98.4737 1.08552C99.1811 0.743676 99.992 0.572754 100.906 0.572754C101.84 0.572754 102.647 0.745761 103.328 1.09178C104.009 1.43779 104.534 1.92554 104.902 2.55504C105.275 3.18037 105.463 3.912 105.467 4.74994H102.464Z" fill="white"/>
<path d="M93.1915 7.15119C93.1915 8.57693 92.9412 9.77964 92.4408 10.7593C91.9403 11.7348 91.2649 12.4748 90.4145 12.9792C89.5641 13.4795 88.6159 13.7296 87.5699 13.7296C86.5163 13.7296 85.5643 13.4774 84.7139 12.973C83.8673 12.4644 83.1937 11.7223 82.6933 10.7468C82.1966 9.76714 81.9482 8.5686 81.9482 7.15119C81.9482 5.72544 82.1966 4.52482 82.6933 3.54931C83.1937 2.56963 83.8673 1.82966 84.7139 1.3294C85.5643 0.824969 86.5163 0.572754 87.5699 0.572754C88.6159 0.572754 89.5641 0.824969 90.4145 1.3294C91.2649 1.82966 91.9403 2.56963 92.4408 3.54931C92.9412 4.52482 93.1915 5.72544 93.1915 7.15119ZM89.963 7.15119C89.963 6.38412 89.8708 5.73795 89.6864 5.21268C89.5058 4.68323 89.2368 4.28302 88.8793 4.01205C88.5256 3.73691 88.0891 3.59933 87.5699 3.59933C87.0506 3.59933 86.6122 3.73691 86.2548 4.01205C85.9011 4.28302 85.632 4.68323 85.4476 5.21268C85.267 5.73795 85.1767 6.38412 85.1767 7.15119C85.1767 7.91826 85.267 8.56651 85.4476 9.09596C85.632 9.62123 85.9011 10.0214 86.2548 10.2966C86.6122 10.5676 87.0506 10.703 87.5699 10.703C88.0891 10.703 88.5256 10.5676 88.8793 10.2966C89.2368 10.0214 89.5058 9.62123 89.6864 9.09596C89.8708 8.56651 89.963 7.91826 89.963 7.15119Z" fill="white"/>
<path d="M68.4839 13.5545V0.747803H71.6221V5.75041H75.7762V0.747803H78.9144V13.5545H75.7762V8.55188H71.6221V13.5545H68.4839Z" fill="white"/>
<path d="M56.6929 0.747803V13.5545H54.074L49.8973 6.82598H49.8296V13.5545H46.6914V0.747803H49.3555L53.4644 7.4513H53.5547V0.747803H56.6929Z" fill="white"/>
<path d="M43.65 7.15119C43.65 8.57693 43.3997 9.77964 42.8993 10.7593C42.3988 11.7348 41.7234 12.4748 40.873 12.9792C40.0226 13.4795 39.0744 13.7296 38.0284 13.7296C36.9748 13.7296 36.0228 13.4774 35.1724 12.973C34.3258 12.4644 33.6522 11.7223 33.1518 10.7468C32.6551 9.76714 32.4067 8.5686 32.4067 7.15119C32.4067 5.72544 32.6551 4.52482 33.1518 3.54931C33.6522 2.56963 34.3258 1.82966 35.1724 1.3294C36.0228 0.824969 36.9748 0.572754 38.0284 0.572754C39.0744 0.572754 40.0226 0.824969 40.873 1.3294C41.7234 1.82966 42.3988 2.56963 42.8993 3.54931C43.3997 4.52482 43.65 5.72544 43.65 7.15119ZM40.4215 7.15119C40.4215 6.38412 40.3293 5.73795 40.1449 5.21268C39.9643 4.68323 39.6953 4.28302 39.3378 4.01205C38.9841 3.73691 38.5476 3.59933 38.0284 3.59933C37.5091 3.59933 37.0707 3.73691 36.7133 4.01205C36.3596 4.28302 36.0905 4.68323 35.9061 5.21268C35.7255 5.73795 35.6352 6.38412 35.6352 7.15119C35.6352 7.91826 35.7255 8.56651 35.9061 9.09596C36.0905 9.62123 36.3596 10.0214 36.7133 10.2966C37.0707 10.5676 37.5091 10.703 38.0284 10.703C38.5476 10.703 38.9841 10.5676 39.3378 10.2966C39.6953 10.0214 39.9643 9.62123 40.1449 9.09596C40.3293 8.56651 40.4215 7.91826 40.4215 7.15119Z" fill="white"/>
<path d="M29.3755 0.747803V13.5545H26.2373V0.747803H29.3755Z" fill="white"/>
<path d="M23.1631 0.747803V13.5545H20.5442L16.3675 6.82598H16.2998V13.5545H13.1616V0.747803H15.8257L19.9346 7.4513H20.025V0.747803H23.1631Z" fill="white"/>
<path d="M6.94281 0.747803H10.081V8.95209C10.081 9.9276 9.87026 10.7718 9.44883 11.4847C9.03116 12.1934 8.44793 12.7416 7.69913 13.1293C6.95034 13.5128 6.08113 13.7046 5.09152 13.7046C4.09438 13.7046 3.22141 13.5128 2.47261 13.1293C1.72382 12.7416 1.14058 12.1934 0.722912 11.4847C0.309004 10.7718 0.102051 9.9276 0.102051 8.95209V0.747803H3.24022V8.65193C3.24022 9.04797 3.31924 9.40232 3.47728 9.71499C3.63531 10.0235 3.85356 10.2653 4.132 10.4404C4.41421 10.6155 4.73405 10.703 5.09152 10.703C5.45274 10.703 5.77258 10.6155 6.05103 10.4404C6.32947 10.2653 6.54772 10.0235 6.70575 9.71499C6.86379 9.40232 6.94281 9.04797 6.94281 8.65193V0.747803Z" fill="white"/>
</svg>
