<svg width="200" height="76" viewBox="0 0 200 76" fill="none" xmlns="http://www.w3.org/2000/svg">
<g clip-path="url(#clip0_519_18695)">
<path d="M39.0686 55.7594H22.127V27.2261H39.0686V33.4177H29.8353V37.9011H38.3853V44.0927H29.8353V49.4761H39.0686V55.7594Z" fill="#0E2F56"/>
<path d="M87.9117 33.1429C86.9992 33.1429 86.1867 33.3345 85.47 33.7179C84.7533 34.1012 84.1387 34.6575 83.6283 35.3845C83.1221 36.1137 82.7367 37.0012 82.47 38.0512C82.2033 39.097 82.07 40.2825 82.07 41.6095C82.07 43.4054 82.2971 44.9158 82.7533 46.1429C83.2075 47.3658 83.8992 48.2887 84.8283 48.9095C85.7617 49.5325 86.9304 49.8429 88.3367 49.8429C89.6137 49.8429 90.8387 49.6679 92.0117 49.3179C93.1887 48.9679 94.3783 48.547 95.5783 48.0512V54.5679C94.3158 55.1304 93.0242 55.5325 91.7033 55.7762C90.3804 56.0262 88.9783 56.1512 87.495 56.1512C84.3992 56.1512 81.8658 55.5387 79.895 54.3095C77.9221 53.0762 76.4721 51.3679 75.545 49.1845C74.6158 46.997 74.1533 44.4595 74.1533 41.5762C74.1533 39.4158 74.4533 37.4387 75.0533 35.6429C75.6575 33.8429 76.5471 32.2845 77.72 30.9679C78.8908 29.647 80.3387 28.6241 82.0617 27.9012C83.7825 27.1804 85.7575 26.8179 87.9867 26.8179C89.3637 26.8179 90.8158 26.9804 92.345 27.3012C93.8721 27.6179 95.3658 28.1262 96.8283 28.8262L94.4617 34.9012C93.4221 34.4075 92.37 33.9908 91.3033 33.6512C90.2367 33.3137 89.1054 33.1429 87.9117 33.1429Z" fill="#0E2F56"/>
<path d="M118.643 55.7594L117.235 50.4094H107.968L106.518 55.7594H98.0513L107.36 27.1094H117.643L127.068 55.7594H118.643ZM115.635 44.0927L114.401 39.4094C114.272 38.899 114.085 38.174 113.835 37.2344C113.589 36.2906 113.345 35.3156 113.101 34.3094C112.862 33.299 112.678 32.4677 112.551 31.8177C112.435 32.4677 112.268 33.2719 112.051 34.226C111.839 35.1823 111.62 36.1302 111.393 37.0677C111.164 38.001 110.964 38.7823 110.793 39.4094L109.568 44.0927H115.635Z" fill="#0E2F56"/>
<path d="M139.499 27.2261C142.086 27.2261 144.241 27.5427 145.957 28.1761C147.674 28.8052 148.961 29.7427 149.824 30.9927C150.691 32.2427 151.124 33.799 151.124 35.6594C151.124 36.8157 150.928 37.8677 150.541 38.8177C150.151 39.7677 149.595 40.6177 148.874 41.3677C148.151 42.1177 147.291 42.7719 146.291 43.3261L154.599 55.7594H145.857L139.807 45.3761H137.857V55.7594H130.149V27.2261H139.499ZM139.382 33.0594H137.857V39.5844H139.299C140.482 39.5844 141.451 39.324 142.207 38.8011C142.961 38.2802 143.341 37.349 143.341 36.0094C143.341 35.0886 143.026 34.3657 142.399 33.8427C141.776 33.3219 140.77 33.0594 139.382 33.0594Z" fill="#0E2F56"/>
<path d="M174.134 55.7594H157.192V27.2261H174.134V33.4177H164.901V37.9011H173.451V44.0927H164.901V49.4761H174.134V55.7594Z" fill="#0E2F56"/>
<mask id="mask0_519_18695" style="mask-type:luminance" maskUnits="userSpaceOnUse" x="38" y="-1" width="54" height="60">
<path d="M38.9331 -0.466553H91.0727V58.6209H38.9331V-0.466553Z" fill="white"/>
</mask>
<g mask="url(#mask0_519_18695)">
<path d="M86.9749 3.3252C84.6415 1.10228 81.5145 -0.137305 78.2915 -0.126888C74.9624 -0.114388 71.8353 1.18769 69.4811 3.54186L64.9915 8.03144L60.6124 3.65436C55.7374 -1.22064 47.7957 -1.3748 42.8728 3.45436C37.8999 8.33145 37.8707 16.3439 42.7853 21.2564L66.5603 45.0314C69.2728 47.746 69.3999 52.1648 66.7395 54.9273C64.0165 57.7564 59.4978 57.7898 56.7332 55.0273L50.8436 49.1377C50.5957 48.8898 50.5707 48.496 50.7832 48.2148C51.654 47.071 52.1353 45.6189 52.027 44.0523C51.8145 40.9606 49.2874 38.4731 46.1915 38.3127C42.6061 38.1252 39.6353 41.0127 39.6832 44.5669C39.7249 47.8606 42.4103 50.5794 45.702 50.6606C46.7645 50.6877 47.7665 50.446 48.6499 49.9981C48.9186 49.8606 49.2436 49.9189 49.4561 50.1314L55.5395 56.2169C57.2332 57.9106 59.4603 58.7564 61.6853 58.7564C63.9103 58.7564 66.1374 57.9106 67.8311 56.2169C71.2186 52.8273 71.2186 47.3127 67.8311 43.9252L43.9749 20.0669C39.7478 15.8398 39.7478 8.96061 43.9749 4.73353C48.204 0.506446 55.0832 0.506446 59.3103 4.73353L64.3728 9.79811C64.5436 9.96686 64.7686 10.0481 64.9915 10.0419C65.2145 10.0481 65.4374 9.96686 65.6082 9.79811L70.5707 4.83353C72.629 2.7752 75.4082 1.56478 78.3186 1.55853C81.2228 1.55228 83.954 2.68145 86.0082 4.73353C88.0582 6.78561 89.1874 9.51478 89.1832 12.4169C89.179 15.3294 87.9645 18.1106 85.9061 20.1689L84.302 21.7731C84.1707 21.9044 83.9915 21.9794 83.804 21.9794H79.0228C78.7561 21.9794 78.5124 21.8294 78.3957 21.5919L76.0853 16.9731C75.827 16.4544 75.0895 16.4544 74.8311 16.9731L70.8624 24.9044C70.604 25.4231 69.8645 25.4231 69.6082 24.9044L68.252 22.1919C67.9936 21.6752 67.2561 21.6752 66.9978 22.1919L65.6415 24.9044C65.3832 25.421 64.6457 25.421 64.3874 24.9044L60.4207 16.971C60.1624 16.4523 59.4249 16.4523 59.1665 16.971L56.8561 21.5898C56.7374 21.8273 56.4957 21.9773 56.229 21.9773H51.9978C51.5353 21.9773 51.1353 22.3314 51.1207 22.7939C51.1061 23.271 51.4874 23.6606 51.9624 23.6606H57.2707C57.5353 23.6606 57.779 23.5106 57.8978 23.2731L59.1665 20.7356C59.4249 20.2169 60.1624 20.2169 60.4207 20.7356L64.3874 28.6689C64.6457 29.1856 65.3832 29.1856 65.6415 28.6689L66.9978 25.9564C67.2561 25.4398 67.9936 25.4398 68.252 25.9564L69.6082 28.6689C69.8645 29.1877 70.604 29.1877 70.8624 28.6689L74.829 20.7356C75.0874 20.221 75.8249 20.2189 76.0832 20.7356L77.352 23.2752C77.4728 23.5127 77.7145 23.6627 77.979 23.6627H84.4415C84.4415 23.6627 84.4415 23.6627 84.4436 23.6627C84.4957 23.6627 84.5457 23.6564 84.5957 23.6481C84.5978 23.6481 84.602 23.646 84.6061 23.646C84.654 23.6377 84.704 23.6231 84.7499 23.6044C84.754 23.6023 84.7582 23.6023 84.7624 23.6002C84.8082 23.5814 84.854 23.5564 84.8957 23.5294C84.8999 23.5273 84.904 23.5252 84.9082 23.5231C84.954 23.4919 84.9957 23.4585 85.0353 23.421C85.0353 23.4189 85.0353 23.4189 85.0374 23.4169L87.0749 21.3814C89.4853 18.9689 90.8936 15.7044 90.8665 12.296C90.8374 8.88561 89.4561 5.68978 86.9749 3.3252ZM41.3665 44.4835C41.3665 42.0044 43.3832 39.9877 45.8624 39.9877C48.3395 39.9877 50.3582 42.0044 50.3582 44.4835C50.3582 46.9627 48.3395 48.9794 45.8624 48.9794C43.3832 48.9794 41.3665 46.9627 41.3665 44.4835Z" fill="#0E2F56"/>
</g>
<path d="M29.6083 62.0909H32.57V69.0795C32.57 69.9105 32.3711 70.6296 31.9734 71.2369C31.5792 71.8406 31.0288 72.3075 30.3221 72.6378C29.6154 72.9645 28.7951 73.1278 27.8612 73.1278C26.9201 73.1278 26.0962 72.9645 25.3896 72.6378C24.6829 72.3075 24.1325 71.8406 23.7383 71.2369C23.3477 70.6296 23.1523 69.9105 23.1523 69.0795V62.0909H26.114V68.8239C26.114 69.1612 26.1886 69.4631 26.3377 69.7294C26.4869 69.9922 26.6928 70.1982 26.9556 70.3473C27.2219 70.4964 27.5238 70.571 27.8612 70.571C28.2021 70.571 28.5039 70.4964 28.7667 70.3473C29.0295 70.1982 29.2354 69.9922 29.3846 69.7294C29.5337 69.4631 29.6083 69.1612 29.6083 68.8239V62.0909ZM44.9165 62.0909V73H42.4449L38.5031 67.2685H38.4392V73H35.4775V62.0909H37.9917L41.8696 67.8011H41.9548V62.0909H44.9165ZM50.779 62.0909V73H47.8174V62.0909H50.779ZM64.2508 67.5455C64.2508 68.7599 64.0146 69.7844 63.5423 70.619C63.07 71.4499 62.4326 72.0803 61.6301 72.5099C60.8275 72.9361 59.9326 73.1491 58.9454 73.1491C57.9511 73.1491 57.0526 72.9343 56.2501 72.5046C55.4511 72.0714 54.8154 71.4393 54.3431 70.6083C53.8744 69.7738 53.64 68.7528 53.64 67.5455C53.64 66.331 53.8744 65.3082 54.3431 64.4773C54.8154 63.6428 55.4511 63.0124 56.2501 62.5863C57.0526 62.1566 57.9511 61.9418 58.9454 61.9418C59.9326 61.9418 60.8275 62.1566 61.6301 62.5863C62.4326 63.0124 63.07 63.6428 63.5423 64.4773C64.0146 65.3082 64.2508 66.331 64.2508 67.5455ZM61.2039 67.5455C61.2039 66.892 61.1169 66.3416 60.9429 65.8942C60.7725 65.4432 60.5186 65.1023 60.1812 64.8714C59.8474 64.6371 59.4355 64.5199 58.9454 64.5199C58.4553 64.5199 58.0416 64.6371 57.7043 64.8714C57.3705 65.1023 57.1166 65.4432 56.9426 65.8942C56.7721 66.3416 56.6869 66.892 56.6869 67.5455C56.6869 68.1989 56.7721 68.7511 56.9426 69.2021C57.1166 69.6495 57.3705 69.9904 57.7043 70.2248C58.0416 70.4556 58.4553 70.571 58.9454 70.571C59.4355 70.571 59.8474 70.4556 60.1812 70.2248C60.5186 69.9904 60.7725 69.6495 60.9429 69.2021C61.1169 68.7511 61.2039 68.1989 61.2039 67.5455ZM76.56 62.0909V73H74.0884L70.1467 67.2685H70.0827V73H67.1211V62.0909H69.6353L73.5131 67.8011H73.5984V62.0909H76.56ZM87.6875 73V62.0909H90.6491V66.3523H94.5696V62.0909H97.5312V73H94.5696V68.7386H90.6491V73H87.6875ZM111.006 67.5455C111.006 68.7599 110.77 69.7844 110.297 70.619C109.825 71.4499 109.188 72.0803 108.385 72.5099C107.582 72.9361 106.688 73.1491 105.7 73.1491C104.706 73.1491 103.808 72.9343 103.005 72.5046C102.206 72.0714 101.57 71.4393 101.098 70.6083C100.629 69.7738 100.395 68.7528 100.395 67.5455C100.395 66.331 100.629 65.3082 101.098 64.4773C101.57 63.6428 102.206 63.0124 103.005 62.5863C103.808 62.1566 104.706 61.9418 105.7 61.9418C106.688 61.9418 107.582 62.1566 108.385 62.5863C109.188 63.0124 109.825 63.6428 110.297 64.4773C110.77 65.3082 111.006 66.331 111.006 67.5455ZM107.959 67.5455C107.959 66.892 107.872 66.3416 107.698 65.8942C107.527 65.4432 107.273 65.1023 106.936 64.8714C106.602 64.6371 106.19 64.5199 105.7 64.5199C105.21 64.5199 104.797 64.6371 104.459 64.8714C104.125 65.1023 103.871 65.4432 103.697 65.8942C103.527 66.3416 103.442 66.892 103.442 67.5455C103.442 68.1989 103.527 68.7511 103.697 69.2021C103.871 69.6495 104.125 69.9904 104.459 70.2248C104.797 70.4556 105.21 70.571 105.7 70.571C106.19 70.571 106.602 70.4556 106.936 70.2248C107.273 69.9904 107.527 69.6495 107.698 69.2021C107.872 68.7511 107.959 68.1989 107.959 67.5455ZM119.757 65.5C119.728 65.1449 119.595 64.8679 119.357 64.669C119.123 64.4702 118.766 64.3707 118.286 64.3707C117.981 64.3707 117.731 64.408 117.535 64.4826C117.344 64.5536 117.202 64.6513 117.109 64.7756C117.017 64.8999 116.969 65.0419 116.965 65.2017C116.958 65.3331 116.981 65.4521 117.035 65.5586C117.092 65.6616 117.18 65.7557 117.301 65.8409C117.422 65.9226 117.576 65.9972 117.764 66.0646C117.953 66.1321 118.176 66.1925 118.436 66.2457L119.331 66.4375C119.934 66.5653 120.451 66.734 120.881 66.9435C121.31 67.1531 121.662 67.3999 121.935 67.6839C122.209 67.9645 122.409 68.2805 122.537 68.6321C122.669 68.9837 122.736 69.3672 122.74 69.7827C122.736 70.5 122.557 71.1072 122.202 71.6044C121.847 72.1016 121.339 72.4798 120.678 72.739C120.021 72.9982 119.231 73.1278 118.308 73.1278C117.36 73.1278 116.532 72.9876 115.826 72.707C115.122 72.4265 114.576 71.995 114.185 71.4126C113.798 70.8267 113.603 70.0774 113.599 69.1648H116.411C116.429 69.4986 116.513 69.7791 116.662 70.0064C116.811 70.2337 117.021 70.4059 117.29 70.5231C117.564 70.6403 117.889 70.6989 118.265 70.6989C118.581 70.6989 118.846 70.6598 119.059 70.5817C119.272 70.5036 119.434 70.3952 119.544 70.2567C119.654 70.1183 119.71 69.9602 119.714 69.7827C119.71 69.6158 119.655 69.4702 119.549 69.3459C119.446 69.218 119.275 69.1044 119.038 69.005C118.8 68.902 118.478 68.8061 118.073 68.7173L116.987 68.483C116.021 68.2734 115.259 67.9237 114.702 67.4336C114.148 66.94 113.872 66.267 113.876 65.4148C113.872 64.7223 114.057 64.1168 114.43 63.5984C114.806 63.0763 115.327 62.6697 115.991 62.3786C116.658 62.0874 117.424 61.9418 118.286 61.9418C119.167 61.9418 119.929 62.0891 120.572 62.3839C121.214 62.6786 121.71 63.0941 122.058 63.6303C122.409 64.163 122.587 64.7862 122.59 65.5H119.757ZM125.366 73V62.0909H130.075C130.885 62.0909 131.593 62.2507 132.2 62.5703C132.808 62.8899 133.28 63.3391 133.617 63.918C133.955 64.4968 134.123 65.1733 134.123 65.9474C134.123 66.7287 133.949 67.4052 133.601 67.9769C133.257 68.5487 132.772 68.989 132.147 69.2979C131.526 69.6069 130.799 69.7614 129.968 69.7614H127.156V67.4602H129.372C129.72 67.4602 130.016 67.3999 130.261 67.2791C130.51 67.1548 130.7 66.979 130.831 66.7518C130.966 66.5245 131.034 66.2564 131.034 65.9474C131.034 65.6349 130.966 65.3686 130.831 65.1484C130.7 64.9247 130.51 64.7543 130.261 64.6371C130.016 64.5163 129.72 64.456 129.372 64.456H128.328V73H125.366ZM139.672 62.0909V73H136.71V62.0909H139.672ZM142.277 64.4773V62.0909H151.758V64.4773H148.477V73H145.558V64.4773H142.277ZM155.08 73H151.884L155.485 62.0909H159.533L163.134 73H159.938L157.551 65.0952H157.466L155.08 73ZM154.483 68.696H160.492V70.9119H154.483V68.696ZM165.685 73V62.0909H168.646V70.6136H173.057V73H165.685Z" fill="#0E2F56"/>
</g>
<defs>
<clipPath id="clip0_519_18695">
<rect width="200" height="76" fill="white"/>
</clipPath>
</defs>
</svg>
